<?xml version="1.0" encoding="UTF-8" standalone="no"?>
<svg xmlns="http://www.w3.org/2000/svg" viewBox="0 0 1000 1000" version="1.1">
<rect x="0" y="0" width="1000" height="1000" fill="#fff"/>
<path fill="#00572a" d="m830.94 634.45-4.0575-1.7162-1.4124 3.3391-1.6797-0.71046 2.2684-5.3628 6.4859 2.7434q0.33908 1.5391 0.1707 3.1498-0.17849 1.6064-0.86327 3.2254-1.498 3.5414-4.4095 4.6718-2.9174 1.116-6.6106-0.44622-3.7033-1.5664-4.9244-4.4329-1.2268-2.8808 0.27111-6.4223 0.62487-1.4773 1.5498-2.6487 0.92921-1.1816 2.1126-2.0051l2.1755 0.92018q-1.4406 0.72667-2.4656 1.7962t-1.6198 2.4759q-1.1727 2.7724-0.21521 4.8236 0.96177 2.041 4.0276 3.3379 3.0558 1.2925 5.1902 0.56113 2.1387-0.74152 3.3114-3.514 0.45795-1.0827 0.63533-2.0096 0.16726-0.93126 0.0594-1.7761zm-24.937 20.811 1.3066-2.6875 15.521-0.54081-12.341-6 0.94156-1.9366 14.751 7.1722-1.3066 2.6875-15.521 0.5408 12.341 6-0.94156 1.9366-14.751-7.1722zm-3.8007 7.1431 1.046-1.9573 14.466 7.7312-1.046 1.9573-14.466-7.7312zm-2.4157 5.5783 1.872 1.0861q-1.1567 0.78959-1.9756 1.61-0.81893 0.82042-1.3427 1.7232-0.9097 1.568-0.79772 2.7761 0.1175 1.1986 1.2388 1.8492 0.94078 0.54581 1.7507 0.26633 0.80594-0.29451 2.0157-1.7011l0.91019-1.0215q1.6546-1.9106 3.2804-2.3264 1.6217-0.43087 3.3512 0.57255 2.0621 1.1964 2.3215 3.2013 0.26488 1.9954-1.2844 4.6657-0.5844 1.0073-1.4741 2.0153-0.88415 0.99851-2.0365 1.9557l-1.9766-1.1468q1.3338-0.78843 2.317-1.7168 0.98316-0.92836 1.6117-2.0117 0.9538-1.644 0.82586-2.9122t-1.3253-1.9628q-1.0453-0.60646-2.0094-0.3021-0.95856 0.29486-2.1022 1.5874l-0.9062 1.0365q-1.6736 1.8995-3.1427 2.33-1.4691 0.43051-3.0941-0.51226-1.8816-1.0916-2.1985-3.041-0.31145-1.9589 1.0393-4.2871 0.5789-0.99779 1.3604-1.9288 0.7815-0.93106 1.7711-1.8049zm-14.974 23.346 1.6221-2.5097 15.472 1.3405-11.524-7.4486 1.1689-1.8085 13.776 8.9038-1.6221 2.5097-15.472-1.3405 11.524 7.4486-1.1689 1.8084-13.776-8.9038zm-8.8305 12.495 6.0412-8.4299 1.5181 1.0879-4.7485 6.6261 3.9471 2.8286 4.5501-6.3492 1.5181 1.0879-4.5501 6.3492 4.8311 3.4622 4.8636-6.7868 1.5181 1.0879-6.1564 8.5907-13.333-9.5545zm-2.9668 4.8462 1.7011 1.3381q-1.256 0.61947-2.182 1.3169-0.92595 0.6974-1.5712 1.5177-1.1207 1.4248-1.1794 2.6367-0.0519 1.2032 0.96709 2.0047 0.85488 0.67243 1.696 0.50936 0.83928-0.1785 2.2345-1.4014l1.0445-0.88368q1.9064-1.6595 3.5743-1.8431 1.6662-0.19904 3.2378 1.0371 1.8738 1.4739 1.8493 3.4954-0.0177 2.0128-1.9263 4.4393-0.71997 0.91532-1.7423 1.7885-1.0155 0.86457-2.2908 1.6506l-1.7961-1.4128q1.4313-0.59346 2.535-1.3747 1.1037-0.78121 1.878-1.7656 1.175-1.4939 1.2263-2.7674 0.0513-1.2736-1.0368-2.1294-0.94986-0.74714-1.9471-0.58106-0.99045 0.15743-2.3041 1.2767l-1.0427 0.8991q-1.9236 1.6459-3.4386 1.866t-2.9916-0.94136q-1.7098-1.3449-1.75-3.3194-0.0335-1.9832 1.6306-4.0988 0.71318-0.90669 1.6176-1.7189 0.90442-0.81218 2.0069-1.5385zm-11.302 21.71 1.4518 1.3642-11.194 11.914q1.9673 1.5001 3.9072 1.2325 1.9399-0.26763 3.8123-2.2603 1.5113-1.6084 2.6198-3.7293 1.1076-2.1485 1.8115-4.8372l3.9285 3.6913q-1.0153 2.4496-2.3723 4.5783-1.3427 2.142-3.0413 3.9497-4.0658 4.327-8.5181 4.6728-4.4531 0.31822-8.4243-3.4132-3.9-3.6646-3.9279-8.1129-0.0145-4.4626 3.864-8.5903 3.5308-3.7577 7.9071-3.8801 4.3897-0.13661 8.1758 3.421zm-6.6156 3.6464q-1.4518-1.3642-3.1368-1.3394-1.6858-0.003-2.9698 1.3636-1.3909 1.4803-1.4205 3.1946-0.0438 1.7009 1.3079 3.3998l6.2191-6.6186zm-25.936 5.3617 4.1434 4.5743q-2.5017 0.81661-4.5625 1.9454t-3.5663 2.4924q-1.9976 1.8094-2.4548 3.2249-0.45714 1.4155 0.59181 2.5735 0.78672 0.86854 1.8695 0.78379 1.0841-0.11234 3.0924-1.299l2.8067-1.6727q4.26-2.5411 7.1174-2.4413t5.3224 2.8212q3.2387 3.5755 2.6973 7.2545-0.54002 3.6514-4.8972 7.5981-2.0556 1.8619-4.4796 3.3461t-5.189 2.592l-4.2614-4.7046q3.0665-0.77486 5.5032-1.9542 2.438-1.2069 4.233-2.8328 1.8239-1.6521 2.2431-3.1386 0.41917-1.4865-0.60357-2.6156-0.91783-1.0133-2.082-0.96023-1.1497 0.04-3.5117 1.3889l-2.5896 1.476q-3.8719 2.2422-6.7542 2.086-2.8678-0.16941-5.2017-2.7461-2.924-3.2281-2.4129-6.8533 0.51107-3.6252 4.4195-7.1654 1.7805-1.6128 3.9115-3.0423 2.1179-1.444 4.6151-2.731zm-26.443 39.774 7.6322 10.22 2.1478-1.604q2.72-2.0313 3.0584-4.2037 0.34722-2.179-1.6381-4.8373-1.9722-2.6408-4.1535-2.9177-2.1791-0.29229-4.8991 1.739l-2.1478 1.604zm-2.8694-0.1333 3.653-2.7281q3.8203-2.853 6.7971-2.5943 2.9702 0.24995 5.4946 3.6301 2.5375 3.3978 1.9317 6.3321-0.60584 2.9343-4.4085 5.7742l-3.653 2.7282-9.8148-13.142zm-12.601 8.595 8.6045-5.7899 1.0427 1.5495-6.7632 4.551 2.711 4.0288 6.4807-4.3608 1.0427 1.5495-6.4807 4.3608 3.3182 4.9312 6.9273-4.6614 1.0427 1.5495-8.7685 5.9003-9.1571-13.609zm-14.696 9.1132 11.838-7.238 0.97423 1.5934-4.9678 3.0373 7.5818 12.401-1.9028 1.1634-7.5818-12.401-4.9678 3.0373-0.97423-1.5934zm-0.33483 10.146q0.74199-0.13348 1.711 0.23521 0.97859 0.36337 2.2439 1.2461l4.1378 2.836-2.0872 1.152-3.8704-2.6698q-1.5081-1.0499-2.4415-1.1496-0.92381-0.10499-2.078 0.53209l-2.116 1.168 3.35 6.0692-1.9429 1.0724-7.9263-14.36 4.386-2.4209q2.4623-1.3591 4.2423-0.99885 1.78 0.36024 2.9267 2.4378 0.74857 1.3562 0.60748 2.6011-0.13146 1.2396-1.1426 2.2495zm-8.1956-3.3444 2.8138 5.0978 2.4431-1.3485q1.4043-0.77511 1.7604-1.8124 0.36037-1.0522-0.3351-2.3122-0.69548-1.26-1.7672-1.4966-1.0675-0.25158-2.4718 0.52353l-2.4431 1.3485zm-16.559 6.3854 9.3012-4.5877 0.82617 1.675-7.3109 3.606 2.1481 4.355 7.0055-3.4554 0.82618 1.675-7.0055 3.4554 2.6292 5.3305 7.4883-3.6935 0.82617 1.675-9.4786 4.6752-7.2558-14.71zm-4.66 20.086-12.311-12.518 2.1238-0.92898 10.295 10.57-0.76321-14.739 2.1138-0.92458 0.84603 17.533-2.305 1.0082zm-18.595-7.7686 0.1153 8.6994 5.6308-2.1617-5.7461-6.5378zm-1.9528-1.5922 2.3487-0.90169 11.715 13.072-2.1539 0.82688-2.903-3.3927-6.9026 2.65 0.11319 4.4637-2.1846 0.83869-0.0325-17.557zm-8.8503 12.445q0.75389 0.005 1.639 0.54452 0.89551 0.53642 1.9777 1.6359l3.5486 3.5457-2.2629 0.75038-3.3161-3.3334q-1.2904-1.3083-2.1898-1.5772-0.88897-0.27237-2.1403 0.14259l-2.2941 0.76075 2.182 6.58-2.1064 0.69851-5.1628-15.569 4.7551-1.5768q2.6696-0.88524 4.3535-0.20516t2.4308 2.9325q0.48757 1.4703 0.12092 2.6684-0.35622 1.1946-1.5352 2.0022zm-7.4447-4.7886 1.8327 5.5268 2.6487-0.87833q1.5225-0.50487 2.0625-1.4594 0.54695-0.96844 0.094-2.3345-0.453-1.3661-1.4633-1.795-1.0034-0.44278-2.5258 0.0621l-2.6487 0.87832zm-19.223 3.7437 13.355-3.7655 0.50684 1.7976-5.6043 1.5801 3.9444 13.989-2.1465 0.60521-3.9443-13.989-5.6043 1.5801-0.50683-1.7976zm-14.35 3.3883 2.3215-0.54265 5.3568 5.0096 2.6024-6.8701 2.3215-0.54265-3.342 8.8708 7.4179 7.0213-2.3215 0.54264-6.0811-5.7429-2.9373 7.851-2.3322 0.54515 3.709-9.8591-6.715-6.283zm-14.341 2.748 10.196-1.8968 0.34158 1.8362-8.0144 1.4909 0.8881 4.7741 7.6795-1.4286 0.34157 1.8362-7.6795 1.4286 1.087 5.8434 8.2088-1.527 0.34157 1.8362-10.391 1.9329-2.9998-16.126zm207.16-71.203a376.5 376.5 0 0 1 -263.94 109.47v103.5a480 480 0 0 0 337.07 -139.84l-73.14-73.14zm111.23-265.73a376.5 376.5 0 0 1 -109.52 263.87l73.141 73.141a480 480 0 0 0 139.88 -337.01h-103.5z"/>
<path fill="#e97c9c" d="m372.57 833.7 1.6301-4.0928-3.3682-1.3415 0.67481-1.6943 5.4095 2.1545-2.6057 6.5424q-1.5316 0.37152-3.1455 0.23722-1.6099-0.1445-3.2429-0.79492-3.5723-1.4228-4.7639-4.3098-1.1774-2.8932 0.30642-6.6186 1.4878-3.7356 4.3278-5.0169 2.8543-1.2874 6.4266 0.13534 1.4902 0.59351 2.6809 1.4935 1.2009 0.90403 2.0493 2.0697l-0.874 2.1944q-0.75695-1.4249-1.8478-2.427-1.0909-1.0021-2.5096-1.5672-2.7966-1.1138-4.8271-0.11322-2.0203 1.0047-3.252 4.0973-1.2277 3.0824-0.45133 5.2009 0.78654 2.1226 3.5832 3.2364 1.0921 0.43497 2.0226 0.59272 0.93458 0.14755 1.777 0.0219zm-21.335-24.492 2.7145 1.2495 0.86903 15.506 5.7376-12.465 1.956 0.90037-6.8585 14.9-2.7145-1.2495-0.86903-15.506-5.7376 12.465-1.956-0.90038 6.8585-14.9zm-7.2224-3.6489 1.979 1.0043-7.4232 14.627-1.979-1.0044 7.4232-14.627zm-14.375-7.7461 1.942 1.074-3.3549 6.0665 9.7964-2.5042 2.4997 1.3824-10.825 2.7516 3.3961 11.884-2.5574-1.4143-3.0705-10.725-3.8228 6.9125-1.942-1.074 7.938-14.354zm-15.275-9.2613 2.5415 1.5718-1.0318 15.496 7.2174-11.67 1.8314 1.1326-8.6274 13.95-2.5415-1.5718 1.0318-15.496-7.2174 11.67-1.8314-1.1326 8.6274-13.95zm-6.7261-4.5052 1.8416 1.2384-9.1532 13.611-1.8416-1.2384 9.1532-13.611zm-14.965-10.657 1.7928 1.308-3.9628 5.4317 6.5145 4.7527 3.9628-5.4317 1.7928 1.308-9.6673 13.251-1.7928-1.308 4.6038-6.3104-6.5145-4.7527-4.6038 6.3104-1.7928-1.308 9.6673-13.251zm-13.387-10.657 10.809 8.7012-1.1712 1.4548-4.5357-3.6513-9.1146 11.322-1.7372-1.3985 9.1146-11.322-4.5357-3.6513 1.1712-1.4548zm-11.674-17.8 5.1273 4.7541-14.873 16.041-5.1273-4.7541 14.873-16.041zm5.7899-6.2445 5.1273 4.7541-3.8776 4.1821-5.1273-4.7541 3.8776-4.1821zm-21.96-20.647 18.554 19.443-4.1118 3.9238-6.6745-6.9943-16.984 16.208-5.1913-5.44 16.984-16.208-6.688-7.0085 4.1118-3.9238zm-24.812-7.5787-10.002 7.9155 1.6636 2.102q2.1067 2.662 4.2878 2.9394 2.1878 0.28606 4.7896-1.7729 2.5845-2.0453 2.8002-4.2336 0.23114-2.1864-1.8756-4.8484l-1.6636-2.102zm0.0529-2.872 2.8294 3.5752q2.9589 3.7389 2.7836 6.7217-0.16666 2.976-3.4748 5.5941-3.3254 2.6317-6.2755 2.1083-2.9501-0.52341-5.8954-4.245l-2.8294-3.5752 12.862-10.179zm-8.9444-12.356 6.0286 8.439-1.5197 1.0856-4.7386-6.6332-3.9513 2.8227 4.5406 6.356-1.5197 1.0857-4.5406-6.356-4.8363 3.4549 4.8535 6.7941-1.5197 1.0856-6.1435-8.5999 13.347-9.5346zm-9.5209-14.435 7.5665 11.631-1.5656 1.0185-3.1752-4.8808-12.184 7.926-1.2162-1.8694 12.184-7.926-3.1752-4.8808 1.5656-1.0185zm-10.151-0.0504q0.15419 0.73797-0.18722 1.7169-0.33584 0.98837-1.1828 2.2779l-2.719 4.2156-1.21-2.0541 2.5605-3.9437q1.0073-1.5369 1.0808-2.4728 0.0791-0.92639-0.59005-2.0623l-1.2268-2.0825-5.9731 3.5185-1.1264-1.9122 14.133-8.3251 2.5427 4.3165q1.4275 2.4233 1.1172 4.2127-0.31028 1.7894-2.355 2.9938-1.3347 0.78624-2.5831 0.68005-1.2428-0.0967-2.2806-1.0792zm3.1137-8.286-5.017 2.9553 1.4163 2.4044q0.81412 1.382 1.861 1.7089 1.0619 0.33078 2.302-0.39969 1.24-0.73047 1.4466-1.8084 0.22159-1.0741-0.59252-2.4561l-1.4163-2.4044zm-6.8464-16.374 4.8462 9.1692-1.6512 0.87274-3.8092-7.2071-4.2932 2.2691 3.6501 6.906-1.6512 0.87273-3.6501-6.906-5.2548 2.7774 3.9016 7.382-1.6512 0.87273-4.9386-9.344 14.502-7.6646zm-20.201-4.0812 12.178-12.648 0.98662 2.0977-10.285 10.58 14.713-1.1653 0.98194 2.0877-17.503 1.3244-1.0708-2.2766zm7.0992-20.936q-0.91622-2.2366-3.1249-2.8752-2.2045-0.62846-5.0816 0.55014-2.8669 1.1744-3.997 3.1689-1.1259 2.0046-0.20965 4.2412 0.91622 2.2366 3.1166 2.8549 2.2045 0.62845 5.0714-0.54598 2.8771-1.1786 4.0071-3.1731 1.1342-1.9843 0.21798-4.2209zm1.6673-0.68301q1.3077 3.1922-0.0545 5.9823-1.352 2.7859-4.9509 4.2602-3.5887 1.4701-6.5168 0.43759-2.9179-1.0367-4.2256-4.2289-1.3119-3.2024 0.0359-5.9984 1.352-2.7859 4.9509-4.2601 3.5989-1.4743 6.5168-0.43759 2.9322 1.0427 4.2441 4.2451zm-14.038-11.426q0.008 0.75386-0.51602 1.6482-0.52081 0.90467-1.6014 2.0058l-3.4837 3.6095-0.7895-2.2495 3.2754-3.3734q1.2857-1.3128 1.539-2.2168 0.25692-0.89355-0.17967-2.1375l-0.80041-2.2806-6.5412 2.2957-0.73493-2.094 15.477-5.4319 1.659 4.7271q0.93139 2.6538 0.2806 4.3493-0.65078 1.6955-2.8899 2.4813-1.4617 0.51299-2.6659 0.16717-1.2006-0.33546-2.0285-1.5003zm4.6588-7.5266-5.4942 1.9283 0.92411 2.6331q0.53119 1.5135 1.495 2.0368 0.97778 0.53009 2.3358 0.0535 1.358-0.47661 1.7693-1.4942 0.42532-1.0109-0.10586-2.5244l-0.92412-2.6331zm-4.0477-19.11 3.9868 13.291-1.7889 0.53662-1.673-5.5772-13.922 4.1762-0.64079-2.1362 13.922-4.1762-1.673-5.5772 1.7889-0.53662zm-3.8376-15.168 0.72215 2.8997-11.558 10.373 13.315-3.3161 0.52038 2.0895-15.916 3.9639-0.72216-2.8997 11.558-10.373-13.315 3.3161-0.52037-2.0895 15.916-3.9639zm-1.6741-7.9323 0.4544 2.1722-16.055 3.3585-0.4544-2.1722 16.055-3.3585zm70.908 197.69-73.141 73.141a480 480 0 0 0 337.02 139.91v-103.5a376.5 376.5 0 0 1 -263.87 -109.52zm-214.82-265.63a480 480 0 0 0 139.84 337.08l73.139-73.139a376.5 376.5 0 0 1 -109.47 -263.94h-103.5z"/>
<path fill="#62407a" d="m382.47 169.22 2.8323-0.9528 11.269 10.687-4.3752-13.006 2.0409-0.68658 5.2299 15.546-2.8323 0.9528-11.269-10.687 4.3752 13.006-2.0409 0.68658-5.2299-15.546zm-11.376 5.9556q-2.2457 0.89373-2.9065 3.0959-0.65055 2.1981 0.4991 5.0869 1.1456 2.8786 3.1286 4.0286 1.9932 1.146 4.2389 0.25222 2.2457-0.89372 2.886-3.0878 0.65055-2.1981-0.49504-5.0767-1.1497-2.8888-3.1327-4.0388-1.9728-1.1541-4.2185-0.26035zm-0.66624-1.674q3.2052-1.2756 5.9814 0.1145 2.7721 1.3799 4.2102 4.9934 1.434 3.6033 0.37215 6.5208-1.0659 2.9073-4.2712 4.1829-3.2154 1.2796-5.9978-0.0962-2.7721-1.3799-4.2102-4.9934t-0.37214-6.5208q1.0721-2.9216 4.2875-4.2013zm-14.013 6.2545 2.027-0.90347 6.6776 14.982-2.027 0.90347-6.6776-14.982zm-16.428 7.8279 12.467-6.0912 0.81987 1.6781-5.2317 2.5561 6.3806 13.06-2.0038 0.97903-6.3806-13.06-5.2317 2.5561-0.81987-1.6781zm-5.754 3.0965 1.9585-1.0436 7.7137 14.476-1.9585 1.0436-7.7137-14.476zm-16.362 9.2939 1.9262-1.1242 5.023 8.606q1.3291 2.2772 2.7416 2.8012 1.407 0.51448 3.2572-0.56542 1.8408-1.0744 2.0848-2.5525 0.23847-1.4876-1.0906-3.7648l-5.023-8.606 1.9262-1.1242 5.1614 8.8432q1.6171 2.7706 1.0664 4.9874-0.54117 2.2112-3.2169 3.773-2.6852 1.5672-4.8862 0.95648-2.1915-0.6163-3.8086-3.3869l-5.1614-8.8432zm-14.848 9.5264 11.633-7.5629 1.018 1.5659-4.8818 3.1737 7.9222 12.186-1.8698 1.2156-7.9222-12.186-4.8818 3.1737-1.018-1.5659zm-13.356 9.5388 2.4234-1.7484 13.927 6.8725-8.0288-11.128 1.7463-1.2599 9.5972 13.302-2.4234 1.7485-13.927-6.8725 8.0288 11.128-1.7463 1.2599-9.5972-13.302zm-6.879 5.3496 1.7476-1.3678 10.11 12.916-1.7476 1.3678-10.11-12.916zm-8.3542 13.63 1.349 1.4659-12.029 11.07q1.8533 1.6389 3.8075 1.5128 1.9542-0.12617 3.9663-1.9778 1.624-1.4945 2.8835-3.5294 1.2606-2.0625 2.1577-4.693l3.6503 3.9666q-1.1904 2.3695-2.6982 4.3941-1.4946 2.039-3.3198 3.7186-4.3691 4.0206-8.8347 4.0424-4.4645-0.006-8.1544-4.0155-3.6238-3.9379-3.3289-8.3765 0.30931-4.4518 4.4772-8.2873 3.7942-3.4916 8.1678-3.2961 4.388 0.18226 7.906 4.0052zm-6.8627 3.1568q-1.349-1.4659-3.0313-1.5635-1.6812-0.12512-3.0609 1.1445-1.4947 1.3755-1.6485 3.0831-0.16709 1.6932 1.0578 3.4858l6.6829-6.1499zm-45.614 23.971 5.652-6.2119 21.93 5.6154-14.793-13.46 4.7977-5.2729 21.568 19.624-5.652 6.2119-21.93-5.6154 14.793 13.46-4.7977 5.2729-21.568-19.624zm-5.7066 31.333 10.267 7.5679 1.5905-2.1578q2.0142-2.7327 1.7082-4.9099-0.29945-2.1861-2.9702-4.1546-2.6531-1.9555-4.821-1.5881-2.1702 0.35205-4.1844 3.0847l-1.5905 2.1578zm-2.7848 0.70435 2.7052-3.6701q2.829-3.8381 5.7529-4.4535 2.9151-0.62194 6.311 1.8812 3.4136 2.5161 3.6846 5.5 0.27093 2.9839-2.545 6.8044l-2.7052 3.6701-13.204-9.732zm-8.9602 13.318 5.7256-8.6474 1.5572 1.0311-4.5004 6.797 4.0489 2.6808 4.3124-6.513 1.5573 1.0311-4.3124 6.513 4.9558 3.2813 4.6096-6.9619 1.5573 1.0311-5.8348 8.8122-13.676-9.0554zm-9.3675 15.369 7.1372-11.899 1.6017 0.96067-2.995 4.9934 12.465 7.4762-1.1472 1.9126-12.465-7.4762-2.995 4.9934-1.6017-0.96067zm4.835 9.3325q0.55181-0.51369 1.5662-0.72787 1.0196-0.22384 2.5613-0.16597l5.0143 0.14642-1.1321 2.0981-4.6995-0.15135q-1.8364-0.067-2.6753 0.35413-0.83373 0.41151-1.4598 1.5718l-1.1477 2.1271 6.1009 3.2919-1.0538 1.9531-14.435-7.7888 2.3789-4.4089q1.3355-2.4752 3.0274-3.1352 1.6919-0.66005 3.7803 0.4668 1.3633 0.73559 1.9182 1.8589 0.56009 1.1136 0.25605 2.51zm-8.702 1.6214 5.1244 2.765 1.3251-2.4558q0.76167-1.4116 0.49991-2.4766-0.2662-1.0799-1.5328-1.7633-1.2666-0.68341-2.296-0.30258-1.0338 0.36595-1.7955 1.7776l-1.3251 2.4558zm-9.7646 15.561 4.4885-9.3495 1.6837 0.80831-3.528 7.3489 4.3776 2.1016 3.3806-7.0418 1.6837 0.80831-3.3806 7.0418 5.3581 2.5723 3.6136-7.5271 1.6837 0.8083-4.574 9.5278-14.787-7.0988zm9.868 18.367-17.546-0.63022 0.90401-2.1346 14.743 0.60041-10.686-10.181 0.89973-2.1245 12.666 12.153-0.98113 2.3167zm-18.387 7.9208 6.6146 5.6516 2.0894-5.658-8.704 0.006zm-2.4848 0.41753 0.87153-2.3601 17.552-0.18206-0.79922 2.1643-4.4648-0.056-2.5613 6.936 3.4296 2.8592-0.81064 2.1952-13.218-11.557zm4.0414 14.987q0.44577-0.608 1.402-1.0085 0.95959-0.41093 2.4848-0.64297l4.9529-0.79578-0.71887 2.2731-4.6446 0.73195q-1.8164 0.27824-2.5616 0.84916-0.74185 0.56045-1.1394 1.8174l-0.7288 2.3045 6.6097 2.0903-0.66917 2.1159-15.639-4.9459 1.5106-4.7766q0.84806-2.6816 2.3863-3.647 1.5382-0.96539 3.8008-0.24984 1.477 0.4671 2.2325 1.4665 0.75885 0.98896 0.72186 2.4176zm-8.2441 3.2233 5.5517 1.7557 0.84144-2.6606q0.48366-1.5294 0.027-2.5264-0.46384-1.0109-1.8361-1.4449-1.3722-0.43397-2.312 0.13302-0.94697 0.55319-1.4306 2.0825l-0.84144 2.6606zm-7.1447 18.885 3.5653-13.41 1.805 0.47989-1.4962 5.6273 14.047 3.7347-0.57305 2.1554-14.047-3.7347-1.4961 5.6273-1.805-0.47989zm-3.3313 15.116 0.50545-2.3298 6.823-2.6905-5.09-5.2975 0.50545-2.3298 6.5801 6.8236 9.5242-3.6896-0.50545 2.3298-7.796 3.0303 5.8324 6.0206-0.50778 2.3406-7.3156-7.579-8.5558 3.3713zm-2.6457 15.116 1.7228-10.227 1.8417 0.31024-1.3542 8.0386 4.7885 0.80665 1.2976-7.7028 1.8417 0.31025-1.2976 7.7028 5.861 0.98732 1.387-8.2336 1.8417 0.31025-1.7556 10.422-16.175-2.7247zm6.7612-284.69a480 480 0 0 0 -139.9 336.99h103.5a376.5 376.5 0 0 1 109.52 -263.87l-73.14-73.15zm338.78-141.7a480 480 0 0 0 -337.08 139.84l73.139 73.139a376.5 376.5 0 0 1 263.94 -109.47v-103.5z"/>
<path fill="#6191b0" d="m809.93 367.86 4.0265-1.7876-1.4711-3.3136 1.6668-0.74002 2.3627 5.3218-6.4364 2.8576q-1.355-0.80481-2.4154-2.0289-1.0503-1.2286-1.7636-2.8352-1.5603-3.5144-0.39456-6.412 1.1802-2.892 4.8453-4.5192 3.6751-1.6316 6.6017-0.56293 2.9411 1.0743 4.5014 4.5887 0.65087 1.466 0.87338 2.9419 0.22697 1.4859 0.0189 2.9126l-2.1589 0.95847q0.45462-1.5481 0.37489-3.0273-0.0797-1.4792-0.69938-2.8749-1.2215-2.7513-3.373-3.4549-2.147-0.69358-5.1895 0.65718-3.0324 1.3463-3.958 3.404-0.92111 2.0678 0.30038 4.819 0.477 1.0744 1.0322 1.8376 0.56525 0.75876 1.2555 1.2577zm0.0217-32.54 1.3572 2.6623-8.9219 12.712 12.225-6.232 0.97797 1.9184-14.613 7.4495-1.3572-2.6623 8.9219-12.712-12.225 6.2321-0.97797-1.9184 14.613-7.4495zm-4.2342-7.6148 1.0846 1.9362-14.31 8.016-1.0846-1.9362 14.31-8.016zm-7.4894-12.69 1.1486 1.8989-12.437 7.523 4.1339 6.834-1.598 0.96667-5.2826-8.7329 14.035-8.4896zm-8.8544-13.58 5.7485 8.6321-1.5545 1.0352-4.5184-6.785-4.0417 2.6916 4.3297 6.5015-1.5545 1.0352-4.3297-6.5015-4.947 3.2944 4.6281 6.9496-1.5545 1.0352-5.8582-8.7967 13.652-9.0917zm-9.4451-13.111 6.1373 8.3602-1.5055 1.1052-4.8241-6.5712-3.9144 2.8736 4.6225 6.2967-1.5055 1.1052-4.6225-6.2967-4.7912 3.5173 4.9411 6.7306-1.5055 1.1052-6.2544-8.5196 13.222-9.7066zm-9.2542-11.708 5.9076 7.3454-1.4554 1.1705-4.5168-5.616-3.7669 3.0296 4.0761 5.0681-1.4554 1.1705-4.0761-5.0681-6.104 4.9092-1.3908-1.7293 12.782-10.28zm-11.948-21.773 4.755 5.1264-16.038 14.876-4.755-5.1264 16.038-14.876zm6.2434-5.791 4.755 5.1264-4.1813 3.8784-4.755-5.1264 4.1813-3.8784zm-21.824-19.744 14.706 13.984-3.9165 4.1188-9.2566-8.802-3.7416 3.9348 8.7046 8.2772-3.9165 4.1188-8.7046-8.2772-8.5194 8.9594-5.4492-5.1816 20.094-21.132zm-31.145-6.7802-7.8745 10.034 2.1088 1.6549q2.6706 2.0958 4.8561 1.8557 2.1941-0.23331 4.2424-2.8434 2.0348-2.5928 1.733-4.7708-0.28637-2.1799-2.957-4.2757l-2.1088-1.6549zm-0.61995-2.8048 3.5868 2.8147q3.751 2.9436 4.2778 5.8848 0.53363 2.9325-2.0708 6.2514-2.618 3.3361-5.6088 3.5168-2.9908 0.18071-6.7244-2.7493l-3.5868-2.8147 10.126-12.904zm-13.042-9.358 8.4706 5.984-1.0776 1.5254-6.658-4.7035-2.8018 3.9661 6.3799 4.507-1.0776 1.5254-6.3799-4.507-3.4294 4.8544 6.8196 4.8176-1.0776 1.5254-8.6321-6.0981 9.4641-13.397zm-15.08-9.8271 11.679 7.493-1.0086 1.5719-4.9008-3.1444-7.849 12.233-1.8771-1.2043 7.849-12.233-4.9008-3.1444 1.0086-1.5719zm-9.4739 4.5513q0.49681 0.56706 0.68028 1.5874 0.19297 1.0259 0.0886 2.5651l-0.29766 5.0076-2.063-1.1949 0.29309-4.6928q0.12243-1.8335-0.27324-2.6848-0.38617-0.84577-1.527-1.5065l-2.0915-1.2114-3.4745 5.9988-1.9204-1.1123 8.2209-14.194 4.3351 2.5109q2.4338 1.4096 3.0424 3.1206 0.6087 1.711-0.58066 3.7645-0.77638 1.3405-1.9159 1.8612-1.13 0.52623-2.5166 0.18019zm-1.358-8.747-2.9183 5.0386 2.4147 1.3986q1.388 0.80391 2.4604 0.57442 1.0874-0.2335 1.8088-1.4789 0.72132-1.2454 0.37172-2.2858-0.33458-1.0444-1.7226-1.8483l-2.4147-1.3986zm-15.26-10.23 9.2098 4.7685-0.85874 1.6585-7.2391-3.7481-2.2327 4.3122 6.9366 3.5916-0.85874 1.6585-6.9366-3.5915-2.7328 5.2781 7.4147 3.8391-0.85873 1.6586-9.3854-4.8594 7.5417-14.566zm-18.631 9.3222 1.147-17.52 2.107 0.96652-1.0346 14.719 10.491-10.381 2.097 0.96193-12.521 12.302-2.2868-1.049zm-9.0657-20.037q-2.2463-0.89211-4.2387 0.25527-1.9822 1.1514-3.1298 4.041-1.1435 2.8794-0.49139 5.077 0.66235 2.2017 2.9087 3.0938 2.2463 0.89211 4.2183-0.26338 1.9822-1.1514 3.1257-4.0308 1.1476-2.8896 0.49543-5.0872-0.64192-2.1936-2.8882-3.0857zm0.66502-1.6745q3.2061 1.2733 4.2701 4.1901 1.068 2.9066-0.36745 6.5211-1.4314 3.6043-4.2066 4.9964-2.7712 1.3819-5.9773 0.10859-3.2163-1.2773-4.2946-4.188-1.068-2.9066 0.36745-6.5211 1.4355-3.6146 4.2066-4.9964 2.7854-1.388 6.0017-0.11069zm-18.163 2.8634q0.59929 0.45741 0.98124 1.4212 0.39236 0.96733 0.59496 2.4968l0.70017 4.9673-2.2588-0.76254-0.64229-4.6579q-0.24318-1.8214-0.79964-2.5774-0.54604-0.75252-1.7952-1.1742l-2.29-0.77308-2.2173 6.5682-2.1026-0.70982 5.2464-15.541 4.7466 1.6024q2.6648 0.89958 3.6003 2.4561 0.93556 1.5566 0.17653 3.8049-0.49547 1.4677-1.5093 2.2038-1.0034 0.73964-2.431 0.67512zm-3.0638-8.3046-1.8624 5.5169 2.6439 0.89256q1.5197 0.51305 2.5255 0.0757 1.0196-0.44428 1.48-1.8079 0.46033-1.3636-0.0884-2.3142-0.53484-0.95745-2.0546-1.4705l-2.6439-0.89256zm-18.711-7.4824 13.341 3.8132-0.51326 1.7958-5.5986-1.6002-3.9944 13.975-2.1444-0.6129 3.9944-13.975-5.5986-1.6002 0.51326-1.7958zm-15.965-3.818 2.9096 0.68115 3.9537 15.018 3.1278-13.361 2.0966 0.49083-3.7388 15.971-2.9096-0.68115-3.9537-15.018-3.1278 13.361-2.0966-0.49083 3.7388-15.971zm-8.559-1.6843 2.1788 0.42182-3.1177 16.104-2.1788-0.42182 3.1177-16.104zm274.45 6.3659-73.139 73.139a376.5 376.5 0 0 1 109.47 263.94h103.5a480 480 0 0 0 -139.84 -337.1zm-338.87-141.62v103.5a376.5 376.5 0 0 1 263.87 109.52l73.141-73.141a480 480 0 0 0 -337.01 -139.88z"/>
<path fill="#62407a" d="m140.46 689.47 9.401 16.189q4.1929 7.2205 3.2116 12.94-0.94126 5.73-6.8697 9.1726-5.9537 3.4573-11.422 1.4495-5.4284-1.9972-9.6214-9.2177l-3.7369-6.4351-13.124 7.6208-5.6641-9.754 37.825-21.965zm-1.4043 13.859-10.565 6.1349 3.1337 5.3964q1.6478 2.8375 3.9133 3.5885 2.2909 0.73627 4.8244-0.73493t3.0042-3.8111q0.47066-2.3399-1.1771-5.1774l-3.1337-5.3964zm-16.778-52.825 16.783 36.653-7.7514 3.5494-6.0376-13.185-32.018 14.661-4.696-10.255 32.018-14.661-6.0498-13.212 7.7514-3.5494zm-13.371-39.262 4.0361 11.934-23.322 24.681 28.419-9.6116 3.426 10.13l-41.45 14.02-4.036-11.94 23.322-24.68-28.419 9.61-3.426-10.13 41.439-14.01zm-4.6396-19.678 2.7044 10.95-42.464 10.487-2.7044-10.95 42.464-10.487zm602.25-491.75 16.306 9.1965q7.2727 4.1017 9.3236 9.5301 2.0909 5.4173-1.2769 11.389-3.3821 5.9968-9.1142 7.0356-5.6922 1.0277-12.965-3.074l-6.4816-3.6556-7.4551 13.218-9.8245-5.5409 21.487-38.099zm5.8091 12.661-6.0015 10.641 5.4354 3.0655q2.858 1.6119 5.1918 1.1118 2.3482-0.52558 3.7874-3.0774t0.65977-4.8077q-0.77944-2.2559-3.6375-3.8678l-5.4354-3.0655zm-39.731-28.387 27.703 12.614-3.5328 7.759-17.438-7.9397-3.375 7.4123 16.398 7.4662-3.5328 7.759-16.398-7.4662-7.6848 16.878-10.265-4.674 18.125-39.808zm-44.471-15.996 11.907 4.1134 5.2406 33.55 9.7957-28.356 10.107 3.4916-14.282 41.343-11.907-4.1134-5.2406-33.55-9.7957 28.356-10.107-3.4916 14.282-41.343zm-17.029-4.2987 10.892 2.9291-11.359 42.24-10.892-2.9292 11.359-42.24z"/>
<path fill="#00572a" d="m372.61 885.92 17.995 5.161q8.026 2.3019 11.281 7.1061 3.291 4.7841 1.4011 11.374-1.898 6.618-7.2325 8.9587-5.2982 2.3207-13.324 0.0188l-7.153-2.0515-4.1838 14.588-10.842-3.1096 12.059-42.045zm8.5888 10.967-3.368 11.743 5.9984 1.7204q3.1541 0.90459 5.3081-0.12345 2.1621-1.0562 2.9698-3.8724 0.80767-2.8162-0.47404-4.8296t-4.4358-2.918l-5.9984-1.7204zm-48.697-26.469 37.496 14.803-3.1305 7.9298-13.489-5.3251-12.931 32.755-10.491-4.1417 12.931-32.755-13.516-5.3359 3.1305-7.9298zm-4.6465-0.89485-4.2088 8.2458q-2.477-3.0734-5.1572-5.3624-2.6801-2.289-5.3939-3.6741-3.601-1.838-5.8294-1.7255-2.2284 0.11253-3.2939 2.2001-0.79914 1.5657-0.10384 3.0389 0.73472 1.4605 3.4681 3.645l3.8399 3.0454q5.8315 4.6211 7.2129 8.6812t-1.1226 8.9658q-3.2898 6.4453-8.7372 7.6448-5.408 1.1867-13.262-2.8223-3.7054-1.8913-7.0773-4.5004-3.3719-2.6092-6.3974-5.8968l4.3287-8.4806q2.7192 3.8878 5.6704 6.6769 2.9905 2.7763 6.2262 4.4279 3.2879 1.6782 5.5956 1.4746 2.3077-0.20359 3.3466-2.2389 0.93233-1.8266 0.23811-3.4309-0.66812-1.5909-3.8174-4.1851l-3.4485-2.8456q-5.2058-4.236-6.5211-8.361-1.2892-4.1118 1.0816-8.7565 2.9701-5.819 8.326-7.0324t12.401 2.3828q3.2096 1.6382 6.3488 3.8655 3.1525 2.2012 6.2868 5.018zm-44.165-25.918 9.6239 5.8824-22.812 37.321-9.6239-5.8824 22.812-37.321zm643.15-487.45 5.3343 17.945q2.3792 8.0035 0.0816 13.332-2.2611 5.3484-8.8324 7.3019-6.5994 1.9618-11.443-1.2746-4.8073-3.2167-7.1864-11.22l-2.1204-7.1329-14.547 4.3242-3.214-10.812 41.927-12.464zm-4.621 13.141-11.71 3.4811 1.7781 5.9815q0.93497 3.1452 2.9606 4.4075 2.0538 1.2539 4.862 0.41909 2.8082-0.83479 3.8155-2.9986 1.0072-2.1638 0.0723-5.309l-1.7781-5.9816zm-8.8426-48.022 11.155 28.322-7.9323 3.1242-7.0214-17.827-7.578 2.9846 6.6027 16.764-7.9323 3.1242-6.6027-16.764-17.255 6.7959-4.1334-10.495 40.697-16.029zm-4.956-7.7014-8.2934 4.1142q-0.15794-3.9442-0.94639-7.3794-0.78844-3.4352-2.1425-6.1647-1.7967-3.6218-3.6533-4.8592t-3.9562-0.19585q-1.5747 0.78118-1.8942 2.3786-0.2802 1.6107 0.61322 4.9938l1.2691 4.7338q1.9296 7.186 0.61973 11.27-1.3099 4.0837-6.244 6.5314-6.4825 3.2159-11.572 0.93323-5.0503-2.2694-8.9692-10.169-1.8488-3.7268-3.002-7.8313-1.1532-4.1046-1.624-8.5476l8.5296-4.2314q-0.13281 4.7425 0.57525 8.7409 0.74733 4.0116 2.3618 7.2659 1.6405 3.3069 3.6151 4.5184 1.9746 1.2116 4.0217 0.19605 1.8371-0.91137 2.2355-2.6134 0.41143-1.6758-0.5719-5.6357l-1.0738-4.3401q-1.6566-6.5038-0.25497-10.6 1.4147-4.0703 6.0863-6.3878 5.8526-2.9034 10.877-0.68647 5.0242 2.2169 8.5395 9.303 1.6014 3.2281 2.7953 6.8873 1.2202 3.6462 2.0588 7.776zm-20.818-42.431 5.6151 9.7823-37.935 21.775-5.6152-9.7823 37.935-21.775z"/>
<path fill="#e97c9c" d="m686.18 861.25 16.274-9.2531q7.2584-4.127 12.969-3.0936 5.7212 0.99343 9.1096 6.9529 3.403 5.985 1.3454 11.435-2.0466 5.41-9.305 9.537l-6.4689 3.6781 7.501 13.192-9.8052 5.575-21.62-38.024zm13.845 1.5305 6.0384 10.62 5.4247-3.0844q2.8524-1.6218 3.624-3.8804 0.75711-2.284-0.69095-4.8308t-3.7836-3.0388q-2.3355-0.49195-5.1879 1.1299l-5.4247 3.0844zm-52.186 15.988 36.77-16.526 3.4949 7.7761-13.227 5.9449 14.436 32.12-10.288 4.6238-14.436-32.12-13.254 5.9569-3.4949-7.7761zm-3.0891 2.4021 2.987 8.7627q-3.9307-0.36251-7.4398-0.033-3.5091 0.32949-6.393 1.3125-3.8268 1.3044-5.2978 2.982t-0.7148 3.896q0.56714 1.6638 2.1086 2.1907 1.5598 0.48974 5.0311 0.0493l4.8597-0.63509q7.3774-0.96714 11.253 0.86883 3.8758 1.836 5.6528 7.0492 2.3347 6.8493-0.59785 11.594-2.9143 4.7077-11.261 7.5528-3.9377 1.3422-8.1583 1.9452-4.2206 0.60298-8.687 0.48497l-3.072-9.0123q4.6838 0.7558 8.7405 0.58011 4.075-0.21287 7.5136-1.385 3.494-1.191 4.9549-2.989t0.72363-3.9609q-0.66167-1.9411-2.2964-2.56-1.607-0.62839-5.6619-0.17477l-4.4437 0.49331q-6.6653 0.78629-10.542-1.1423-3.8487-1.9381-5.5312-6.874-2.1079-6.1838 0.75097-10.873 2.8588-4.6888 10.346-7.2409 3.4108-1.1626 7.1953-1.8646 3.7751-0.72967 7.9793-1.0175zm-65.273 17.412 29.606-7.0729 1.981 8.292-18.636 4.452 1.8925 7.9216 17.524-4.1866 1.981 8.292-17.524 4.1866 2.3281 9.7453 19.263-4.6018 1.981 8.292-30.233 7.2226-10.163-42.543zm-477.13-609.95 9.394-16.193q4.1898-7.2223 9.6427-9.2072 5.4423-2.0249 11.372 1.4152 5.9552 3.4548 6.9243 9.199 0.95845 5.7042-3.2314 12.927l-3.7341 6.4367 13.127 7.6151-5.6599 9.7564-37.835-21.949zm12.73-5.6548 10.567 6.1303 3.1313-5.3977q1.6465-2.8382 1.1748-5.1779-0.49701-2.3544-3.0312-3.8245-2.5341-1.4701-4.7993-0.71814-2.2652 0.75197-3.9117 3.5902l-3.1313 5.3977zm-31.034 43.985 17.155-36.48 7.7149 3.628-6.1713 13.123 31.867 14.986-4.7999 10.207-31.867-14.986-6.1838 13.15-7.7149-3.628zm-14.326 39.538 4.2614-11.855 33.613-4.8222-28.231-10.148 3.6173-10.063 41.162 14.796-4.2614 11.855-33.613 4.8222 28.231 10.148-3.6173 10.063-41.162-14.796zm-9.5776 36.795 7.5431-29.49 8.2595 2.1127-4.748 18.563 7.8905 2.0183 4.4649-17.456 8.2595 2.1127-4.4649 17.456 9.707 2.4829 4.9078-19.187 8.2595 2.1127-7.7029 30.114-42.376-10.839z"/>
<path fill="#6191b0" d="m885.97 627.24 5.1543-17.997q2.2989-8.0269 7.1018-11.284 4.7829-3.2928 11.373-1.4054 6.6187 1.8956 8.9615 7.2291 2.3227 5.2974 0.0238 13.324l-2.0488 7.1538 14.589 4.1783-3.1055 10.843-42.05-12.043zm10.963-8.5929 11.745 3.3636 1.7181-5.999q0.90341-3.1544-0.12544-5.308-1.057-2.1617-3.8735-2.9683-2.8165-0.80661-4.8294 0.47585t-2.9163 4.4369l-1.7181 5.9991zm-22.901 40.067 10.875-28.431 7.9628 3.0458-6.8451 17.896 7.607 2.9097 6.4369-16.829 7.9628 3.0458-6.4369 16.829 17.321 6.6253-4.0296 10.535-40.854-15.626zm-0.97128 5.6393 8.3322 4.035q-3.0208 2.5409-5.2531 5.2684t-3.5603 5.4697q-1.7621 3.6387-1.6029 5.8642 0.15921 2.2255 2.2686 3.247 1.5821 0.76615 3.0404 0.0401 1.4447-0.76517 3.5716-3.5437l2.9643-3.9029q4.4979-5.9271 8.5282-7.3933t8.9874 0.93445q6.5128 3.154 7.8262 8.5751 1.2998 5.382-2.5437 13.319-1.8132 3.7442-4.3511 7.17t-5.7614 6.5196l-8.5695-4.15q3.8299-2.8001 6.5566-5.809 2.713-3.048 4.2964-6.3176 1.6089-3.3223 1.357-5.6253-0.25191-2.3029-2.3086-3.2989-1.8457-0.89384-3.4351-0.16616-1.5766 0.70132-4.1042 3.9042l-2.7727 3.5074q-4.1259 5.2934-8.2225 6.6949-4.0838 1.3751-8.7773-0.8978-5.88-2.8475-7.2054-8.1768-1.3254-5.3292 2.1223-12.449 1.5706-3.2432 3.7316-6.4284 2.1346-3.198 4.8851-6.3906zm-31.648 55.828 15.563-26.16 7.3269 4.3588-9.7961 16.467 6.9996 4.1641 9.2119-15.485 7.3269 4.3588-9.2119 15.485 8.611 5.1227 10.126-17.021 7.3269 4.3588-15.892 26.714-37.591-22.363zm-471.94-651.3 18.1-4.775q8.0734-2.1298 13.328 0.33195 5.2757 2.4259 7.0244 9.0546 1.7561 6.657-1.6289 11.398-3.3642 4.7052-11.438 6.835l-7.1952 1.8981 3.871 14.674-10.906 2.8771-11.157-42.293zm12.991 5.0264 3.1162 11.813 6.0338-1.5917q3.1727-0.83697 4.4972-2.8225 1.317-2.0139 0.56969-4.8467-0.7473-2.8328-2.8788-3.9066t-5.3042-0.23688l-6.0338 1.5917zm-48.274 7.3495 28.654-10.271 2.8767 8.0254-18.036 6.4653 2.7482 7.6669 16.961-6.0797 2.8767 8.0254-16.961 6.0797 6.2576 17.457-10.618 3.806-14.759-41.175zm-43.033 19.537 11.404-5.3525 27.147 20.398-12.746-27.157 9.6802-4.5434 18.584 39.596-11.404 5.3525-27.147-20.398 12.746 27.157-9.6802 4.5434-18.584-39.596zm-32.819 19.197 26.209-15.48 4.3356 7.3407-16.498 9.7438 4.1419 7.0127 15.514-9.1628 4.3356 7.3407-15.514 9.1628 5.0954 8.6272 17.053-10.072 4.3356 7.3407-26.764 15.808-22.244-37.662z"/>
<path d="m457.15 306.36 2.2813-0.44435 7.5928 9.3943-2.0404-10.476 1.6439-0.3202 2.439 12.522-2.2814 0.44435-7.5928-9.3943 2.0404 10.476-1.6439 0.32019-2.439-12.522zm-7.8815 3.1801q-1.8168 0.48297-2.5303 2.1227-0.70526 1.6375-0.084 3.9746 0.61908 2.3288 2.0444 3.3999 1.4336 1.0689 3.2504 0.58597 1.8168-0.48297 2.5138-2.1183 0.70527-1.6375 0.0862-3.9663-0.62127-2.337-2.0466-3.4082-1.4171-1.0733-3.2338-0.59035zm-0.36004-1.3543q2.593-0.68933 4.6088 0.6404 2.0136 1.3215 2.7907 4.2448 0.77495 2.9151-0.31436 5.0703-1.0915 2.1469-3.6846 2.8363-2.6013 0.69152-4.6231-0.62776-2.0135-1.3215-2.7907-4.2448-0.77714-2.9234 0.31436-5.0703 1.0976-2.1574 3.6989-2.8489zm-10.007 3.1865 1.6444-0.52458 3.8772 12.154-1.6444 0.52458-3.8772-12.154zm-12.017 4.2499 10.136-3.7062 0.49886 1.3643-4.2534 1.5553 3.8823 10.617-1.6291 0.5957-3.8823-10.617-4.2534 1.5553-0.49886-1.3643zm-3.3755 1.455 1.595-0.65986 4.877 11.789-1.595 0.65986-4.877-11.789zm-12.03 5.4551 1.5702-0.73704 3.2931 7.0158q0.87138 1.8564 1.9292 2.3605 1.0542 0.49632 2.5626-0.21168 1.5006-0.70436 1.7924-1.8324 0.2881-1.1358-0.58328-2.9922l-3.2931-7.0158 1.5702-0.73704 3.3839 7.2092q1.0602 2.2587 0.47955 3.9377-0.57288 1.6754-2.7542 2.6992-2.1891 1.0275-3.8516 0.40142-1.6548-0.62972-2.715-2.8884l-3.3839-7.2092zm-10.787 5.8022 9.4802-5.1572 0.69417 1.276-3.9782 2.1642 5.4022 9.9306-1.5237 0.82892-5.4022-9.9306-3.9782 2.1642-0.69417-1.276zm-9.5962 5.9533 1.9716-1.2308 10.45 6.0578-5.6517-9.0534 1.4207-0.8869 6.7558 10.822-1.9716 1.2308-10.45-6.0578 5.6517 9.0534-1.4207 0.8869-6.7558-10.822zm-4.3996 3.0518 1.4197-0.98168 7.2556 10.493-1.4197 0.98167-7.2556-10.493zm-15.378 13.013 5.3799-4.4663 13.973 16.831-5.3799 4.4663-13.973-16.831zm-5.4394-6.552 5.3799-4.4663 3.6429 4.3881-5.3799 4.4663-3.6429-4.3881zm-23.903 25.546 5.7556-6.1161 21.833 5.9831-14.565-13.706 4.8856-5.1916 21.236 19.984-5.7556 6.1161-21.833-5.9831 14.565 13.706-4.8856 5.1916-21.236-19.984zm-5.1303 20.516 8.123 5.6953 1.1969-1.7072q1.5158-2.1619 1.2378-3.8492-0.27313-1.6943-2.3861-3.1757-2.099-1.4716-3.7779-1.146-1.681 0.31373-3.1968 2.4757l-1.1969 1.7072zm-2.1523 0.59899 2.0358-2.9036q2.129-3.0365 4.3912-3.5689 2.2552-0.53731 4.9419 1.3464 2.7007 1.8935 2.9663 4.2087 0.26565 2.3152-1.8535 5.3377l-2.0358 2.9036-10.446-7.3239zm-5.8139 9.3554 4.2157-6.8771 1.2385 0.75919-3.3136 5.4055 3.22 1.9739 3.1752-5.1797 1.2385 0.75918-3.1752 5.1797 3.9412 2.416 3.394-5.5367 1.2385 0.75919-4.2961 7.0082-10.877-6.6674zm-6.0478 11.004 5.1369-9.4913 1.2775 0.69142-2.1556 3.9829 9.9422 5.3809-0.82564 1.5255-9.9422-5.3809-2.1556 3.9829-1.2775-0.69142zm4.7955 5.7522q0.40707-0.42204 1.1859-0.63082 0.7825-0.2165 1.9823-0.23606l3.9005-0.0961-0.79145 1.6769-3.6562 0.0791q-1.429 0.0247-2.063 0.38696-0.6303 0.35448-1.068 1.2818l-0.80238 1.7 4.876 2.3014-0.73673 1.561-11.537-5.4453 1.6631-3.5237q0.93369-1.9782 2.2201-2.5616 1.2864-0.58341 2.9555 0.20439 1.0896 0.51425 1.5675 1.3635 0.48158 0.84147 0.30387 1.9387zm-6.6906 1.6233 4.0956 1.933 0.92639-1.9628q0.53249-1.1282 0.28465-1.9444-0.25193-0.82757-1.2642-1.3054-1.0123-0.47779-1.7958-0.13894-0.78763 0.32746-1.3201 1.4557l-0.92639 1.9628zm-6.2516 11.199 3.0179-7.4806 1.3471 0.54348-2.3721 5.8799 3.5026 1.413 2.273-5.6342 1.3471 0.54348-2.273 5.6342 4.2871 1.7296 2.4297-6.0225 1.3471 0.54348-3.0755 7.6232-11.831-4.773zm9.2082 12.272-13.645 0.53886 0.57611-1.7085 11.469-0.39782-8.8837-7.27 0.57338-1.7004 10.535 8.6836-0.62525 1.8542zm-14.246 7.2315q-0.48512 1.8162 0.58212 3.251 1.0694 1.4266 3.4058 2.0506 2.328 0.62183 3.9664-0.0815 1.6406-0.71158 2.1257-2.5278 0.48511-1.8162-0.58654-3.2346-1.0694-1.4266-3.3975-2.0484-2.3363-0.62404-3.9747 0.0793-1.6362 0.69507-2.1213 2.5113zm-1.3539-0.36164q0.69239-2.5922 2.8488-3.679 2.1482-1.089 5.0707-0.30837 2.9142 0.77839 4.2416 2.7957 1.3191 2.0151 0.62671 4.6073-0.6946 2.6005-2.845 3.6977-2.1482 1.089-5.0707 0.30837-2.9224-0.78059-4.2416-2.7957-1.3252-2.0256-0.63055-4.626zm4.2816 12.253q0.29261-0.50814 0.99763-0.89949 0.70667-0.39975 1.8659-0.70957l3.7608-1.0388-0.36133 1.8187-3.528 0.96305q-1.3804 0.37044-1.9076 0.87553-0.52557 0.4967-0.72538 1.5024l-0.36633 1.8438 5.2885 1.0507-0.33636 1.693-12.513-2.486 0.75929-3.8218q0.42627-2.1456 1.5329-3.0234 1.1066-0.87786 2.9169-0.51819 1.1817 0.23478 1.8513 0.94279 0.67121 0.69963 0.76479 1.8072zm-6.0975 3.1968 4.442 0.88251 0.42294-2.1288q0.24311-1.2236-0.19521-1.9554-0.44503-0.74181-1.543-0.95994-1.0979-0.21813-1.776 0.30055-0.68475 0.50864-0.92786 1.7323l-0.42294 2.1288zm-3.5245 13.758 1.4883-10.689 1.4388 0.20033-0.62454 4.4855 11.197 1.559-0.23921 1.718-11.197-1.559-0.62454 4.4855-1.4388-0.20032zm-0.92092 11.261 0.18306-2.317 11.085-4.7985-10.639-0.84064 0.13192-1.6696 12.718 1.0049-0.18307 2.317-11.085 4.7985 10.639 0.84063-0.13191 1.6696-12.718-1.0048zm-0.16623 5.3613 0.0561-1.7252 12.751 0.41457-0.0561 1.7252-12.751-0.41458zm-29.14-219.87a320.32 320.32 0 0 0 -92.992 224.24h104.88a215.45 215.45 0 0 1 62.277 -150.07l-74.17-74.17zm226.02-94.76a320.32 320.32 0 0 0 -224.17 93.039l74.041 74.041a215.45 215.45 0 0 1 150.13 -62.23v-104.85z" fill="#9780a7"/>
<path d="m680.39 449.34 3.2807-0.98893-0.81383-2.6998 1.3581-0.40939 1.3071 4.3361-5.2442 1.5808q-0.96759-0.75252-1.6671-1.8-0.69134-1.05-1.0859-2.359-0.86316-2.8635 0.31752-4.9864 1.1913-2.1173 4.1775-3.0174 2.9944-0.90262 5.1492 0.206 2.1655 1.1143 3.0286 3.9778 0.36006 1.1945 0.3886 2.355 0.031 1.1687-0.26794 2.2495l-1.759 0.53023q0.50101-1.1506 0.58298-2.2998 0.082-1.1492-0.26084-2.2864-0.67573-2.2417-2.2678-2.9934-1.5896-0.74351-4.0685 0.004-2.4708 0.74478-3.3846 2.243-0.91141 1.5063-0.23568 3.748 0.26388 0.87539 0.6183 1.5182 0.36261 0.64037 0.84691 1.0923zm3.502-23.629 0.81833 2.1754-7.9975 9.0522 9.9892-3.7577 0.58968 1.5676-11.941 4.4918-0.81833-2.1754 7.9975-9.0522-9.9892 3.7577-0.58968-1.5676 11.941-4.4918zm-2.1249-4.907 0.68345 1.585-11.715 5.0515-0.68346-1.585 11.715-5.0515zm-4.237-9.1252 0.7454 1.5568-10.196 4.882 2.6827 5.603-1.3102 0.62731-3.4281-7.1599 11.507-5.5093zm-5.2484-9.847 3.8648 7.0803-1.275 0.69598-3.0378-5.5652-3.3151 1.8096 2.9108 5.3327-1.275 0.69599-2.9108-5.3327-4.0577 2.2149 3.1115 5.7002-1.2751 0.69598-3.9384-7.2153 11.198-6.1124zm-5.7774-9.4872 4.2555 6.8525-1.234 0.76636-3.3449-5.3862-3.2085 1.9925 3.2052 5.1612-1.234 0.76636-3.2052-5.1612-3.9271 2.4388 3.4261 5.5169-1.234 0.76635-4.3367-6.9832 10.838-6.7304zm-5.748-8.376 4.1963 6.0119-1.1912 0.83143-3.2084-4.5965-3.083 2.152 2.8954 4.148-1.1912 0.83143-2.8953-4.148-4.9959 3.4871-0.98793-1.4154 10.461-7.302zm-11.793-4.0482-1.2988 1.1626-9.5402-10.658q-1.4563 1.6017-1.3694 3.313 0.0868 1.7113 1.6826 3.494 1.288 1.4389 3.0532 2.5653 1.7893 1.1278 4.08 1.9444l-3.5145 3.1459q-2.0588-1.0701-3.812-2.4137-1.7659-1.3322-3.2135-2.9494-3.465-3.871-3.4303-7.7783 0.0588-3.906 3.6115-7.086 3.489-3.1231 7.3689-2.8115 3.8913 0.32428 7.1967 4.017 3.0091 3.3617 2.7854 7.1859-0.21235 3.837-3.5995 6.8688zm-2.6792-6.0424q1.2988-1.1626 1.4044-2.6333 0.12973-1.4694-0.96449-2.6918-1.1854-1.3243-2.6776-1.4795-1.4794-0.1666-3.0625 0.88346l5.3001 5.9211zm-16.18-35.072 13.348 11.709-3.2795 3.7386-8.4021-7.3705-3.133 3.5716 7.9011 6.931-3.2795 3.7386-7.9011-6.931-7.1338 8.1324-4.9462-4.3389 16.826-19.181zm-21.805-3.1833-5.6036 8.1865 1.7205 1.1777q2.1788 1.4914 3.8629 1.1944 1.6911-0.29215 3.1487-2.4216 1.448-2.1154 1.1035-3.7905-0.33261-1.6774-2.5114-3.1688l-1.7205-1.1777zm-0.62315-2.1455 2.9263 2.003q3.0602 2.0947 3.618 4.3508 0.56262 2.249-1.2908 4.9567-1.863 2.7218-4.1751 3.0134-2.3121 0.29166-5.3582-1.7934l-2.9263-2.003 7.206-10.528zm-9.4203-5.7086 6.924 4.1382-0.74523 1.2469-5.4424-3.2527-1.9376 3.242 5.215 3.1168-0.74524 1.2469-5.215-3.1168-2.3716 3.9681 5.5744 3.3316-0.74523 1.2469-7.056-4.2171 6.5449-10.951zm-11.071-5.9242 9.5483 5.0301-0.67705 1.2852-4.0068-2.1108-5.2691 10.002-1.5347-0.80849 5.2691-10.002-4.0068-2.1108 0.67706-1.2852zm-5.6983 4.8595q0.42658 0.40232 0.64406 1.1788 0.22526 0.78003 0.25825 1.9795l0.13974 3.8992-1.6856-0.77262-0.12-3.6551q-0.0408-1.4286-0.41004-2.0585-0.36152-0.6263-1.2936-1.0536l-1.7089-0.7833-2.2466 4.9015-1.5691-0.71921 5.3157-11.597 3.5421 1.6236q1.9886 0.91147 2.5863 2.1912 0.59778 1.2798-0.17128 2.9576-0.50202 1.0953-1.3458 1.5827-0.83603 0.49098-1.9352 0.32557zm-1.6981-6.672-1.887 4.117 1.973 0.90435q1.1341 0.51982 1.9475 0.26285 0.8247-0.26118 1.2911-1.2788 0.46641-1.0176 0.11882-1.7973-0.33627-0.78392-1.4704-1.3037l-1.973-0.90436zm-11.268-6.126 7.5139 2.934-0.52837 1.3531-5.906-2.3062-1.3738 3.5182 5.6593 2.2098-0.52837 1.3531-5.6593-2.2098-1.6815 4.3062 6.0493 2.3621-0.52837 1.3531-7.6572-2.99 4.6404-11.884zm-12.195 9.3349-0.67836-13.639 1.7143 0.5586 0.51507 11.465 7.1788-8.9576 1.7061 0.55596-8.5754 10.623-1.8605-0.60625zm-5.9618-13.243-3.8826 5.5421 4.5361 1.1961-0.65347-6.7382zm-0.50837-1.8926 1.8921 0.49891 1.4487 13.576-1.7351-0.45751-0.28928-3.4608-5.5607-1.4662-1.9581 2.8682-1.7599-0.46405 7.9624-11.094zm-9.8168 4.6395q0.50708 0.29446 0.89589 1.0009 0.39718 0.70812 0.70281 1.8685l1.0252 3.7646-1.8174-0.3679-0.95029-3.5315q-0.36545-1.3817-0.86863-1.9108-0.4948-0.52736-1.4998-0.73081l-1.8425-0.37299-1.0698 5.2847-1.6918-0.34247 2.5312-12.504 3.819 0.7731q2.144 0.43402 3.0178 1.5438 0.87385 1.1098 0.50765 2.9188-0.23905 1.1809-0.94948 1.8479-0.70205 0.66868-1.81 0.75825zm-3.1748-6.109-0.89856 4.4388 2.1273 0.43063q1.2228 0.24752 1.9561-0.18814 0.74342-0.44235 0.96551-1.5395 0.2221-1.0971-0.29413-1.777-0.50616-0.68659-1.7289-0.93412l-2.1273-0.43063zm-13.777-3.5936 10.682 1.5377-0.20697 1.4378-4.4826-0.64526-1.6107 11.19-1.7169-0.24715 1.6107-11.19-4.4826-0.64527 0.20697-1.4378zm-10.541-0.92053 1.8473 0.1601 2.7489 4.9984 3.5848-4.4495 1.8473 0.1601-4.6152 5.7497 3.7862 6.9838-1.8473-0.16009-3.107-5.7156-4.0695 5.0937-1.8558-0.16084 5.1254-6.3916-3.4451-6.2681zm-10.468-0.35742 8.063 0.23566-0.0424 1.452-6.3376-0.18524-0.11034 3.7752 6.0728 0.17749-0.0424 1.452-6.0728-0.1775-0.13506 4.6208 6.4914 0.18973-0.0424 1.452-8.2167-0.24016 0.37271-12.752zm225.15-27.197-74.041 74.041a215.45 215.45 0 0 1 62.23 150.13h104.85a320.32 320.32 0 0 0 -93.04 -224.15zm-225.96-94.842v104.88a215.45 215.45 0 0 1 150.07 62.277l74.17-74.15a320.32 320.32 0 0 0 -224.24 -93z" fill="#065284"/>
<path d="m455.99 693.78 0.81909-3.3272-2.7381-0.67406 0.33908-1.3773 4.3975 1.0826-1.3093 5.3185q-1.1403 0.44968-2.398 0.51845-1.2557 0.0605-2.5832-0.26635-2.904-0.71491-4.1302-2.812-1.2158-2.1033-0.47025-5.1318 0.74759-3.0368 2.7988-4.327 2.0616-1.2965 4.9656-0.58157 1.2114 0.29822 2.2248 0.86451 1.0217 0.56832 1.7997 1.3758l-0.43916 1.7839q-0.73524-1.017-1.6826-1.6726-0.9474-0.65564-2.1007-0.93956-2.2734-0.55968-3.731 0.42791-1.4492 0.98964-2.0682 3.5037-0.61687 2.5058 0.20732 4.0551 0.8325 1.5514 3.1059 2.111 0.8878 0.21855 1.6215 0.24079 0.73577 0.0139 1.3714-0.17281zm-17.241-16.245 2.2156 0.70217 2.1681 11.883 3.2243-10.174 1.5965 0.50598-3.8542 12.161-2.2156-0.70218-2.1681-11.883-3.2243 10.174-1.5965-0.50598 3.8542-12.161zm-4.3527-1.6304 1.6195 0.597-4.4124 11.97-1.6195-0.59699 4.4124-11.97zm-10.284-4.1529 1.5927 0.6653-2.0782 4.9752 7.361-2.7686 2.05 0.85632-8.1348 3.0472 3.6355 8.8992-2.0973-0.87608-3.2853-8.0306-2.368 5.6691-1.5927-0.66529 4.9172-11.772zm-10.916-5.2464 2.0866 1.0238 0.37716 12.073 4.7012-9.5814 1.5036 0.73774-5.6196 11.453-2.0866-1.0238-0.37716-12.073-4.7012 9.5814-1.5036-0.73774 5.6196-11.453zm-4.071-2.2624 1.513 0.83073-6.14 11.183-1.513-0.83073 6.14-11.183zm-10.879-6.4558 1.4732 0.89945-2.7251 4.4634 5.3531 3.2683 2.7251-4.4634 1.4732 0.89945-6.6479 10.889-1.4732-0.89945 3.1659-5.1854-5.3531-3.2683-3.1659 5.1854-1.4732-0.89946 6.6479-10.889zm-9.515-6.556 8.867 6.1522-0.82808 1.1935-3.7209-2.5817-6.4444 9.2882-1.4252-0.98882 6.4444-9.2882-3.7209-2.5817 0.82808-1.1935zm-8.0459-2.0592-1.1521 1.3081-10.734-9.4542q-1.2565 1.7628-0.96775 3.4518 0.28874 1.689 2.0842 3.2704 1.4492 1.2764 3.3353 2.186 1.9102 0.90809 4.2814 1.4479l-3.1175 3.5397q-2.1709-0.81891-4.0708-1.9456-1.9112-1.1139-3.5399-2.5484-3.8988-3.4338-4.3267-7.3177-0.40381-3.8855 2.7476-7.4636 3.0949-3.514 6.9844-3.6638 3.9023-0.13849 7.6215 3.1372 3.3858 2.982 3.6162 6.8058 0.2432 3.8351-2.7614 7.2466zm-3.3754-5.6828q1.1521-1.3081 1.0829-2.781-0.0451-1.4744-1.2763-2.5587-1.3338-1.1747-2.8338-1.1522-1.4888 0.01-2.9364 1.2397l5.9636 5.2523zm-13.882-33.675 15.83 17.389-3.6775 3.3478-5.6947-6.2556-15.19 13.828-4.4292-4.8655 15.19-13.828-5.7062-6.2683 3.6776-3.3478zm-18.834-1.9894-8.0438 5.8067 1.2204 1.6905q1.5454 2.1408 3.2306 2.4314 1.6902 0.29748 3.7825-1.213 2.0785-1.5004 2.3213-3.1933 0.25476-1.6909-1.2907-3.8318l-1.2204-1.6905zm0.13981-2.2298 2.0756 2.8752q2.1706 3.0069 1.9319 5.3186-0.2318 2.3067-2.8923 4.2273-2.6743 1.9306-4.9486 1.4224-2.2743-0.50811-4.4349-3.5011l-2.0756-2.8752 10.344-7.4671zm-5.4445-8.5143 4.3197 6.8123-1.2268 0.7779-3.3953-5.3546-3.1897 2.0226 3.2535 5.1309-1.2268 0.7779-3.2535-5.1309-3.9041 2.4756 3.4777 5.4845-1.2268 0.7779-4.402-6.9422 10.774-6.8318zm-5.8181-10.221 5.292 9.4057-1.266 0.7123-2.2207-3.947-9.8525 5.5434-0.85058-1.5118 9.8525-5.5434-2.2207-3.947 1.266-0.71231zm-7.079 0.88401q0.0774 0.58125-0.24352 1.321-0.3171 0.74742-1.0479 1.6991l-2.3505 3.1142-0.82095-1.6626 2.2119-2.9124q0.86932-1.1344 0.97992-1.8562 0.11439-0.71404-0.33959-1.6334l-0.8323-1.6856-4.8346 2.3872-0.7642-1.5477 11.439-5.6483 1.7251 3.4938q0.9685 1.9614 0.62536 3.3316-0.34313 1.3702-1.9981 2.1874-1.0803 0.53343-2.0426 0.37958-0.95845-0.14618-1.7072-0.96771zm2.8897-6.2489-4.0608 2.0051 0.96093 1.9461q0.55234 1.1186 1.3456 1.4321 0.80474 0.31738 1.8084-0.17822 1.0037-0.49559 1.2256-1.3199 0.23339-0.82045-0.31896-1.9391l-0.96093-1.9461zm-3.5615-11.566 3.1593 7.422-1.3366 0.56894-2.4833-5.8338-3.4751 1.4792 2.3795 5.5901-1.3366 0.56894-2.3795-5.5901-4.2535 1.8106 2.5435 5.9753-1.3366 0.56894-3.2195-7.5635 11.738-4.9966zm-14.741-3.0316 10.346-8.9132 0.61223 1.6958-8.7303 7.4488 11.478 0.16239 0.60932 1.6878-13.651-0.24116-0.66445-1.8405zm7.5742-12.429-6.7535-0.42446 1.3438 4.4946 5.4096-4.0701zm1.3501-1.4204 0.56055 1.8748-10.83 8.3129-0.51404-1.7192 2.8026-2.0509-1.6474-5.5097-3.4684-0.17589-0.52139-1.7438 13.618 1.0119zm-8.6521-6.0021q-0.0542 0.58386-0.53199 1.2334-0.47579 0.65789-1.4005 1.4226l-2.9858 2.5116-0.4295-1.8038 2.8057-2.3458q1.1004-0.91202 1.3692-1.5909 0.27075-0.67055 0.0332-1.668l-0.43543-1.8288-5.2452 1.2489-0.39981-1.6791 12.411-2.955 0.90254 3.7905q0.50669 2.128-0.13336 3.3872t-2.4356 1.6867q-1.1721 0.27907-2.0758-0.0855-0.90172-0.35625-1.4484-1.3241zm4.2104-5.4471-4.4056 1.049 0.50273 2.1114q0.28897 1.2136 0.99238 1.6962 0.71369 0.48885 1.8026 0.22957 1.0889-0.25929 1.4891-1.0134 0.41047-0.74774 0.1215-1.9614l-0.50273-2.1114zm-1.1424-13.48 1.9135 10.621-1.4296 0.25755-0.80296-4.4571-11.126 2.0044-0.30755-1.7071 11.126-2.0044-0.80296-4.457 1.4296-0.25756zm-1.1791-9.6736 0.22742 1.8402-4.3178 3.7279 5.0975 2.5815 0.22743 1.8402-6.5835-3.3192-6.0442 5.1552-0.22742-1.8402 4.9449-4.2273-5.8284-2.9217-0.22847-1.8487 7.3175 3.6848 5.415-4.6728zm-0.67074-9.6035 0.53976 8.0483-1.4494 0.0972-0.42426-6.3261-3.7684 0.25273 0.40654 6.0618-1.4494 0.0972-0.40654-6.0618-4.6124 0.30933 0.43455 6.4796-1.4494 0.0972-0.55005-8.2018 12.729-0.85367zm36.197 144.27-74.17 74.17a320.32 320.32 0 0 0 224.24 92.992v-104.88a215.45 215.45 0 0 1 -150.08 -62.29zm-168.94-151.86a320.32 320.32 0 0 0 93.039 224.17l74.041-74.041a215.45 215.45 0 0 1 -62.23 -150.13h-104.85z" fill="#a6121f"/>
<path d="m688.17 563.88-3.2235-1.162-0.95626 2.6527-1.3344-0.48103 1.5358-4.2604 5.1527 1.8575q0.32817 1.181 0.26524 2.4391-0.071 1.2551-0.5346 2.5413-1.0142 2.8135-3.2278 3.814-2.2188 0.98956-5.1528-0.0681-2.9421-1.0606-4.0111-3.2353-1.0742-2.1857-0.0599-4.9992 0.42307-1.1736 1.0921-2.1224 0.6719-0.95678 1.5562-1.6462l1.7283 0.62301q-1.0882 0.62504-1.8392 1.4988-0.75097 0.87376-1.1538 1.9911-0.79399 2.2026 0.036 3.7552 0.83291 1.5446 3.2686 2.4227 2.4276 0.87512 4.0546 0.2172 1.6298-0.66597 2.4238-2.8685 0.31006-0.86013 0.40877-1.5875 0.0907-0.73029-0.0287-1.3819zm-17.957 15.454 0.92947-2.1303 12.044-0.91672-9.7821-4.268 0.66976-1.535 11.693 5.1018-0.92947 2.1303-12.044 0.91671 9.7821 4.268-0.66976 1.5351-11.693-5.1018zm-2.0765 4.1626 0.7625-1.5485 11.445 5.6357-0.7625 1.5485-11.445-5.6357zm-1.0053 2.9811 1.478 0.80569q-0.88297 0.63786-1.5027 1.2927-0.61973 0.65485-1.0083 1.3676-0.67482 1.2379-0.56274 2.1749 0.11618 0.92948 1.0015 1.4121 0.74276 0.4049 1.3667 0.17082 0.62052-0.24566 1.532-1.3643l0.68652-0.81308q1.2469-1.5197 2.5023-1.8767 1.252-0.36858 2.6175 0.37577 1.6281 0.88749 1.8712 2.4409 0.24727 1.5459-0.90196 3.6542-0.43352 0.79527-1.1044 1.5974-0.66675 0.79466-1.5429 1.5628l-1.5605-0.85068q1.0207-0.64063 1.7659-1.3828 0.74519-0.74217 1.2114-1.5975 0.70754-1.298 0.5818-2.2813-0.12574-0.98335-1.0711-1.4987-0.82529-0.44987-1.5686-0.19326-0.73918 0.2491-1.6016 1.2777l-0.68311 0.82467q-1.2619 1.5115-2.3952 1.8767-1.1333 0.36514-2.4163-0.33422-1.4855-0.80978-1.7723-2.3189-0.28273-1.5166 0.71927-3.3547 0.42943-0.78778 1.0178-1.5279 0.58834-0.74007 1.3397-1.44zm-10.376 16.868 1.2317-1.971 12.048 0.85848-9.0509-5.6557 0.88752-1.4203 10.819 6.7605-1.2317 1.971-12.048-0.85848 9.0509 5.6556-0.88752 1.4203-10.819-6.7605zm-5.8354 8.2894 4.6718-6.5758 1.1842 0.84132-3.6721 5.1687 3.0789 2.1874 3.5187-4.9528 1.1842 0.84131-3.5186 4.9528 3.7686 2.6773 3.7612-5.2941 1.1842 0.84131-4.7608 6.7012-10.4-7.3887zm-1.2804 2.3974 1.317 1.0484q-0.97969 0.47615-1.703 1.0144-0.72331 0.53824-1.2289 1.1734-0.87806 1.1031-0.92912 2.0454-0.0457 0.9356 0.74315 1.5635 0.66186 0.52684 1.3168 0.40379 0.65357-0.13505 1.7442-1.0799l0.81637-0.6826q1.4902-1.2821 2.7883-1.4174 1.2968-0.14731 2.5135 0.82122 1.4508 1.1548 1.4226 2.7269-0.0229 1.5654-1.5182 3.4441-0.56409 0.70866-1.3631 1.3832-0.79372 0.66786-1.7891 1.2735l-1.3906-1.1069q1.1159-0.45513 1.9778-1.0578 0.86194-0.60264 1.4686-1.3648 0.92063-1.1566 0.96624-2.1469 0.0456-0.99031-0.79677-1.6608-0.73541-0.58537-1.5118-0.46069-0.77105 0.11799-1.7978 0.9826l-0.81501 0.6946q-1.5035 1.2715-2.6828 1.4358-1.1793 0.16436-2.3225-0.74562-1.3237-1.0537-1.3462-2.5896-0.0171-1.5426 1.2867-3.1806 0.55876-0.70198 1.2658-1.3296 0.70708-0.62761 1.5678-1.1876zm-21.307 14.046 4.2483-4.4027 13.774 13.291-4.2484 4.4027-13.774-13.291zm-5.3619-5.174 4.2483-4.4027 3.591 3.4651-4.2483 4.4027-3.591-3.4651zm-2.7291 5.496 3.5029 4.1102q-2.2096 0.64807-4.0418 1.5808-1.8322 0.93275-3.185 2.0856-1.795 1.5297-2.2322 2.7556-0.43724 1.2259 0.44956 2.2664 0.6651 0.78043 1.6143 0.73493 0.95113-0.0696 2.739-1.0544l2.499-1.3887q3.793-2.1098 6.2894-1.947t4.5804 2.6081q2.738 3.2128 2.1672 6.4161-0.56884 3.1793-4.484 6.5158-1.847 1.5741-4.0063 2.808-2.1593 1.234-4.6068 2.1297l-3.6026-4.2273q2.7025-0.59662 4.8648-1.5636 2.1642-0.99112 3.7771-2.3657 1.6389-1.3967 2.0448-2.6857 0.40591-1.289-0.45872-2.3036-0.77595-0.9105-1.7955-0.89486-1.0066 0.005-3.1081 1.1219l-2.3039 1.2224q-3.4457 1.8587-5.9623 1.6458-2.5037-0.22399-4.4768-2.5393-2.472-2.9006-1.9291-6.0577 0.54283-3.1571 4.0548-6.15 1.5999-1.3634 3.5014-2.5574 1.8905-1.2069 4.1086-2.2665zm-18.883 31.297 5.4716 8.2753 1.7392-1.1499q2.2025-1.4563 2.5619-3.1281 0.36659-1.6765-1.0567-3.8291-1.4139-2.1383-3.0953-2.4504-1.6791-0.32395-3.8815 1.1323l-1.7392 1.1499zm-2.2221-0.23121 2.958-1.9558q3.0934-2.0454 5.3934-1.712 2.2952 0.32628 4.105 3.0633 1.8192 2.7513 1.2181 5.0028-0.60103 2.2515-3.6802 4.2875l-2.958 1.9558-7.0363-10.642zm-8.7303 5.0901 6.9839-4.0363 0.72688 1.2577-5.4895 3.1726 1.8899 3.27 5.2601-3.0401 0.72688 1.2577-5.2601 3.0401 2.3132 4.0024 5.6226-3.2496 0.72688 1.2577-7.1171 4.1133-6.3837-11.046zm-10.451 5.3932 9.6151-4.9012 0.6597 1.2942-4.0348 2.0567 5.1341 10.072-1.5454 0.78777-5.1341-10.072-4.0348 2.0567-0.65971-1.2942zm0.59276 7.1092q0.58394-0.0534 1.3099 0.2976 0.73376 0.34753 1.6546 1.1168l3.015 2.4764-1.6949 0.75195-2.819-2.3297q-1.0978-0.91519-1.8143-1.0554-0.70873-0.14363-1.646 0.2722l-1.7184 0.76234 2.1866 4.9286-1.5778 0.69998-5.1736-11.661 3.5617-1.5801q1.9996-0.88709 3.3545-0.48796 1.3549 0.39914 2.1034 2.0863 0.4886 1.1013 0.29535 2.0564-0.18543 0.95164-1.037 1.666zm-6.1249-3.1439 1.8366 4.1397 1.9839-0.88017q1.1404-0.50592 1.4862-1.2857 0.35018-0.79103-0.10377-1.8142-0.45394-1.0232-1.2684-1.2788-0.81017-0.26689-1.9505 0.23903l-1.9839 0.88017zm-11.702 3.0831 7.5455-2.8516 0.51354 1.3588-5.9309 2.2414 1.3352 3.533 5.6831-2.1478 0.51354 1.3588-5.6831 2.1478 1.6342 4.3243 6.0748-2.2958 0.51353 1.3588-7.6894 2.906-4.51-11.934zm-3.6171 14.597-8.4705-10.711 1.7201-0.5404 7.0753 9.0357 0.64473-11.461 1.7119-0.53784-0.81475 13.628-1.8668 0.5865zm-13.699-8.223q-1.8253 0.44981-2.5685 2.0763-0.73496 1.6244-0.15634 3.9724 0.57657 2.3397 1.9822 3.4366 1.4139 1.0949 3.2392 0.64505 1.8253-0.44981 2.5519-2.0722 0.73496-1.6244 0.15839-3.9641-0.57862-2.348-1.9842-3.4449-1.3973-1.099-3.2226-0.64915zm-0.33531-1.3607q2.6052-0.642 4.5964 0.72423 1.9891 1.3579 2.7129 4.295 0.72174 2.9287-0.40663 5.0637-1.1304 2.1267-3.7356 2.7687-2.6135 0.64405-4.6109-0.71183-1.9892-1.3579-2.7129-4.295-0.72378-2.937 0.40663-5.0637 1.1367-2.137 3.7501-2.7811zm-8.725 9.076q0.57994 0.0866 1.202 0.59969 0.63044 0.5116 1.3426 1.4773l2.3419 3.1207-1.8249 0.32864-2.1863-2.9316q-0.84948-1.1494-1.5124-1.4554-0.65447-0.30758-1.6636-0.12585l-1.8501 0.33318 0.95561 5.3065-1.6988 0.30592-2.261-12.556 3.8348-0.69059q2.1529-0.38769 3.3745 0.32132 1.2217 0.70902 1.5488 2.5255 0.21353 1.1858-0.20066 2.0678-0.40579 0.88054-1.4025 1.3726zm-5.2048-4.5066 0.80265 4.4571 2.1361-0.38467q1.2278-0.22111 1.7486-0.89662 0.52774-0.68544 0.32935-1.7871t-0.92906-1.5431q-0.72379-0.45138-1.9516-0.23027l-2.1361 0.38466zm-13.475 0.37137 10.712-1.3098 0.17631 1.4419-4.4953 0.54966 1.3721 11.221-1.7218 0.21053-1.3721-11.221-4.4953 0.54966-0.1763-1.4419zm-10.397 0.66558 2.3195-0.14741 6.3223 10.292-0.67691-10.651 1.6714-0.10622 0.80915 12.732-2.3195 0.14741-6.3223-10.292 0.67691 10.651-1.6714 0.10623-0.80915-12.732zm-4.6771 0.0613 1.7258-0.0313 0.2311 12.755-1.7258 0.0313-0.2311-12.755zm148.81-34.502a215.45 215.45 0 0 1 -150.11 62.21v104.85a320.32 320.32 0 0 0 224.17 -93.039l-74.041-74.041zm63.998-151.92a215.45 215.45 0 0 1 -62.277 150.07l74.17 74.17a320.32 320.32 0 0 0 92.992 -224.24h-104.88z" fill="#589274"/>
<path fill="#9780a7" d="m301.74 643.58 6.8352 8.9723-31.415 23.932q-6.502 4.9533-12.417 3.8611-5.8969-1.069-11.347-8.2235l-1.3848-1.8178 6.7816-5.1664 1.0652 1.3983q2.1305 2.7966 4.7749 3.0286 2.6622 0.25537 5.6918-2.0526l31.415-23.932zm-22.23-35.421 20.691 34.597-7.3167 4.3758-7.4434-12.446-30.222 18.075-5.7893-9.6802 30.222-18.075-7.4585-12.471 7.3167-4.3758zm-15.276-39.578 4.4709 11.778-22.401 25.52 28.047-10.647 3.795 9.9973-40.893 15.523-4.4709-11.778 22.401-25.52-28.047 10.647-3.795-9.9973 40.893-15.523zm-7.4431-37.64 5.654 29.91-8.377 1.5836-3.5589-18.827-8.0028 1.5128 3.3467 17.704-8.377 1.5836-3.3467-17.704-9.8452 1.8611 3.6786 19.46-8.377 1.5836-5.7737-30.543 42.979-8.1245zm408.6-260.93 9.0186 6.774-23.718 31.577q-4.909 6.5356-10.898 7.0938-5.9652 0.57581-13.157-4.8258l-1.8272-1.3724 5.1201-6.8166 1.4055 1.0557q2.811 2.1114 5.4188 1.6152 2.6312-0.47859 4.9185-3.5238l23.718-31.577zm-36.612-22.739 26.346 15.246-4.2702 7.3789-16.583-9.5968-4.0794 7.0492 15.595 9.0246-4.2702 7.3789-15.595-9.0246-9.2887 16.051-9.7625-5.6495 21.908-37.858zm-52.853-20.844 11.879 4.1941 5.0129 33.585 9.9878-28.289 10.083 3.5601-14.562 41.245-11.879-4.1941-5.0129-33.585-9.9878 28.289-10.083-3.5601 14.562-41.245zm-46.769-8.513 30.073 4.7098-1.3191 8.4227-18.929-2.9646-1.2602 8.0464 17.801 2.7878-1.3191 8.4227-17.801-2.7878-1.5503 9.8989 19.566 3.0643-1.3191 8.4227-30.71-4.8095 6.7678-43.213z"/>
<path fill="#589274" d="m453.62 740.39 11.122 1.8757-6.5673 38.942q-1.3593 8.06-6.4227 11.306-5.0346 3.251-13.903 1.7554l-2.2533-0.38 1.4177-8.4067 1.7333 0.29231q3.4667 0.58463 5.5553-1.0538 2.1175-1.6335 2.7509-5.3891l6.5673-38.942zm-40.447-10.68 38.746 11.128-2.3534 8.1941-13.938-4.0032-9.7208 33.847-10.841-3.1136 9.7209-33.847-13.967-4.0113 2.3534-8.1941zm-4.6594-0.78704-3.9374 8.3788q-2.5761-2.9909-5.3295-5.1912-2.7534-2.2002-5.511-3.4961-3.6591-1.7195-5.8826-1.5343-2.2235 0.18522-3.2203 2.3064-0.7476 1.5909-0.005 3.0407 0.78201 1.4357 3.5852 3.5299l3.9373 2.9184q5.9793 4.4283 7.4925 8.4412 1.5132 4.0128-0.82931 8.9977-3.0776 6.5492-8.483 7.926-5.3664 1.3627-13.347-2.3878-3.7652-1.7693-7.2204-4.267t-6.5865-5.6848l4.0495-8.6174q2.8447 3.7969 5.8853 6.4882 3.0796 2.6772 6.3674 4.2223 3.3409 1.57 5.6408 1.2911 2.2998-0.27882 3.2717-2.347 0.8722-1.8561 0.12598-3.4368-0.7197-1.5683-3.952-4.0583l-3.5396-2.7315q-5.3413-4.0638-6.7906-8.1437-1.4228-4.0675 0.79511-8.7872 2.7786-5.9129 8.092-7.3005t12.472 1.9766q3.2614 1.5326 6.4716 3.6562 3.2227 2.0971 6.4473 4.8101zm-58.593-35.096 25.155 17.141-4.8007 7.0453-15.834-10.789-4.5862 6.7305 14.889 10.146-4.8007 7.0453-14.889-10.146-5.642 8.28 16.366 11.152-4.8007 7.0453-25.687-17.504 24.63-36.146zm429.42-241.01 1.6479 11.158-39.068 5.7699q-8.0861 1.1942-12.736-2.6204-4.6459-3.7857-5.96-12.683l-0.33386-2.2606 8.4339-1.2456 0.25682 1.739q0.51363 3.4779 2.7166 4.959 2.2072 1.5101 5.9749 0.95369l39.068-5.7699zm-9.2472-39.438 7.7499 29.436-8.2444 2.1706-4.8782-18.529-7.8761 2.0736 4.5873 17.424-8.2444 2.1706-4.5873-17.424-17.934 4.7216-2.8717-10.908 42.299-11.136zm-6.482-14.174-8.466 3.7461q0.0154-3.9473-0.62149-7.4138-0.63686-3.4665-1.8698-6.2528-1.636-3.6972-3.4364-5.0149-1.8005-1.3177-3.9438-0.36935-1.6075 0.71129-1.9968 2.2932-0.35064 1.5968 0.39338 5.0159l1.0601 4.785q1.6123 7.2638 0.12434 11.286-1.488 4.0223-6.5247 6.251-6.6174 2.9281-11.602 0.42426-4.9458-2.4889-8.514-10.553-1.6834-3.8044-2.6553-7.9556-0.97188-4.1512-1.2472-8.6107l8.7072-3.8528q-0.34089 4.7321 0.19094 8.7577 0.57048 4.0405 2.0405 7.3626 1.4937 3.3757 3.4132 4.6728t4.0092 0.37244q1.8754-0.82984 2.3481-2.5127 0.4846-1.6561-0.32392-5.6553l-0.88226-4.3831q-1.3695-6.5703 0.21068-10.601 1.592-4.0042 6.3609-6.1144 5.9744-2.6436 10.896-0.20826 4.922 2.4354 8.1228 9.669 1.4581 3.2953 2.4902 7.0034 1.0589 3.6962 1.7154 7.8589zm-34.004-65.652 16.548 25.548-7.1555 4.6348-10.416-16.081-6.8358 4.4278 9.7953 15.122-7.1555 4.6348-9.7953-15.122-8.4095 5.4471 10.767 16.622-7.1555 4.6348-16.899-26.089 36.712-23.779z"/>
<path fill="#a6121f" d="m629.92 707.49 9.4124-6.2153 21.762 32.955q4.5041 6.8209 3.0159 12.649-1.4638 5.8115-8.9692 10.768l-1.9069 1.2592-4.6978-7.1143 1.4669-0.96862q2.9337-1.9372 3.3434-4.56 0.43413-2.6389-1.6646-5.8171l-21.762-32.955zm-36.85 19.787 35.918-18.302 3.8706 7.5961-12.921 6.584 15.988 31.376-10.05 5.1209-15.988-31.376-12.947 6.5974-3.8706-7.5961zm-3.957 2.6112 2.8334 8.8136q-3.9238-0.43112-7.4381-0.16298t-6.415 1.2007q-3.849 1.2374-5.349 2.889-1.5001 1.6516-0.78276 3.8829 0.538 1.6735 2.0701 2.2272 1.551 0.51691 5.0294 0.13721l4.87-0.55012q7.3932-0.83811 11.236 1.0653 3.8431 1.9034 5.5288 7.1469 2.2147 6.8891-0.80029 11.582-2.9961 4.656-11.391 7.355-3.9605 1.2732-8.191 1.8024-4.2305 0.52916-8.6942 0.33315l-2.9141-9.0646q4.6699 0.8375 8.7291 0.7327 4.0781-0.14166 7.5366-1.2535 3.5143-1.1298 5.0064-2.902t0.79271-3.9477q-0.62766-1.9524-2.2514-2.5998-1.5958-0.65636-5.658-0.27364l-4.4517 0.41561q-6.678 0.66974-10.52-1.3263-3.8143-2.005-5.4103-6.9696-1.9995-6.2197 0.94078-10.858 2.9403-4.6381 10.471-7.0591 3.4306-1.1029 7.2268-1.7386 3.7872-0.66361 7.9958-0.87799zm-47.375 11.315 11.068-2.1707 8.4179 42.923-11.068 2.1707-8.4179-42.923zm-277.92-397.64 6.4224-9.2723 32.465 22.487q6.7194 4.6542 7.5074 10.617 0.80465 5.9387-4.3166 13.332l-1.3012 1.8785-7.0084-4.8544 1.0009-1.445q2.0018-2.8901 1.4058-5.4768-0.57936-2.6109-3.7103-4.7795l-32.465-22.487zm-23.694 41.961 18.839-35.64 7.5372 3.9841-6.777 12.821 31.133 16.457-5.271 9.9719-31.133-16.457-6.7907 12.847-7.5372-3.9841zm-16.372 48.981 3.7388-12.03 33.37-6.2877-28.648-8.9037 3.1737-10.212 41.769 12.982-3.7389 12.03-33.37 6.2877 28.648 8.9037-3.1737 10.212-41.769-12.982zm-4.1921 25.645 1.8027-11.134 43.178 6.9906-1.8027 11.134-43.178-6.9906z"/>
<path fill="#065284" d="m738.35 555.92 2.3209-11.038 38.647 8.1261q7.9989 1.6819 11.039 6.8716 3.0462 5.1611 1.1955 13.963l-0.4702 2.2363-8.343-1.7542 0.3617-1.7202q0.72339-3.4404-0.82978-5.5932-1.5471-2.1814-5.2742-2.9651l-38.65-8.12zm-9.8771 33.08 9.3122-28.98 8.1166 2.6081-5.8616 18.242 7.754 2.4916 5.512-17.154 8.1166 2.6081-5.512 17.154 17.656 5.6733-3.4506 10.739-41.643-13.381zm-1.6458 7.5444 8.2892 4.1226q-3.0474 2.509-5.3083 5.2128t-3.6177 5.4319q-1.8004 3.62-1.6646 5.847 0.13575 2.227 2.2343 3.2708 1.5739 0.78278 3.0398 0.0722 1.4527-0.7499 3.6087-3.5059l3.0052-3.8715q4.5601-5.8794 8.6056-7.303t8.977 1.0291q6.4792 3.2224 7.7355 8.6571 1.243 5.3954-2.6839 13.291-1.8526 3.7249-4.4264 7.1238-2.5739 3.3989-5.8298 6.4586l-8.5253-4.24q3.8592-2.7596 6.6174-5.7396 2.745-3.0193 4.3627-6.272 1.6438-3.3052 1.4162-5.6107-0.22763-2.3055-2.2737-3.3231-1.8362-0.91324-3.4332-0.20234-1.5839 0.68466-4.1451 3.8608l-2.8095 3.478q-4.1815 5.2497-8.2926 6.6079-4.0981 1.332-8.7673-0.99024-5.8497-2.9093-7.1188-8.2522t2.2534-12.425q1.6047-3.2265 3.7991-6.3887 2.1682-3.1753 4.9522-6.3388zm-23.695 39.982 6.0794-9.5007 36.843 23.575-6.0794 9.5007-36.843-23.575zm-256.63-414.74 11.118-1.9019 6.6593 38.927q1.3783 8.0568-2.3293 12.793-3.6787 4.731-12.544 6.2476l-2.2524 0.38533-1.4376-8.4033 1.7326-0.2964q3.4653-0.59282 4.8958-2.829 1.4594-2.2411 0.81719-5.9951l-6.6593-38.927zm-41.704 11.019 29.172-8.692 2.4344 8.1704-18.362 5.4712 2.3257 7.8054 17.267-5.1449 2.4344 8.1704-17.267 5.1449 5.2955 17.773-10.81 3.2208-12.49-41.919zm-51.407 24.09 11.208-5.7516 27.85 19.428-13.697-26.691 9.5138-4.8822 19.97 38.915-11.208 5.7516-27.85-19.428 13.697 26.691-9.5138 4.8822-19.97-38.915zm-21.231 14.93 9.2159-6.5031 25.218 35.738-9.2159 6.5031-25.218-35.738z"/>
<path d="m604.06 474.57v1.9775h-18.589q0.26367 4.1748 2.5049 6.3721 2.2632 2.1753 6.2842 2.1753 2.3291 0 4.5044-0.57129 2.1973-0.57129 4.3506-1.7139v3.8232q-2.1753 0.92285-4.4604 1.4062-2.2852 0.4834-4.6362 0.4834-5.8887 0-9.3384-3.4277-3.4277-3.4277-3.4277-9.2725 0-6.0425 3.252-9.5801 3.2739-3.5596 8.811-3.5596 4.9658 0 7.8442 3.208 2.9004 3.186 2.9004 8.6792zm-4.043-1.1865q-0.0439-3.3179-1.8677-5.2954-1.8018-1.9775-4.79-1.9775-3.3838 0-5.4272 1.9116-2.0215 1.9116-2.3291 5.3833l14.414-0.022zm-46.538-10.107h4.2847l7.6904 20.654 7.6904-20.654h4.2847l-9.2285 24.609h-5.4932l-9.2285-24.609zm-9.5801 0h4.043v24.609h-4.043v-24.609zm0-9.5801h4.043v5.1196h-4.043v-5.1196zm-13.667 2.5928v6.9873h8.3276v3.1421h-8.3276v13.359q0 3.0103 0.81299 3.8672 0.83496 0.85694 3.3618 0.85694h4.1528v3.3838h-4.1528q-4.6802 0-6.46-1.7358-1.7798-1.7578-1.7798-6.3721v-13.359h-2.9663v-3.1421h2.9663v-6.9873h4.0649zm-16.479 6.9873h4.043v24.609h-4.043v-24.609zm0-9.5801h4.043v5.1196h-4.043v-5.1196zm-8.1079 19.336v14.854h-4.043v-14.722q0-3.4936-1.3623-5.2295-1.3623-1.7358-4.0869-1.7358-3.2739 0-5.1636 2.0874-1.8896 2.0874-1.8896 5.6909v13.909h-4.0649v-24.609h4.0649v3.8232q1.4502-2.2192 3.4058-3.3179 1.9775-1.0986 4.5483-1.0986 4.2407 0 6.416 2.6367 2.1753 2.6147 2.1753 7.7124zm-32.827 2.2632q0-4.3945-1.8237-6.8115-1.8018-2.417-5.0757-2.417-3.252 0-5.0757 2.417-1.8018 2.417-1.8018 6.8115 0 4.3726 1.8018 6.7896 1.8237 2.417 5.0757 2.417 3.2739 0 5.0757-2.417 1.8237-2.417 1.8237-6.7896zm4.043 9.5361q0 6.2842-2.7905 9.3384-2.7905 3.0762-8.5474 3.0762-2.1314 0-4.021-0.32959-1.8896-0.30762-3.6694-0.9668v-3.9331q1.7798 0.9668 3.5156 1.4282 1.7358 0.46142 3.5376 0.46142 3.977 0 5.9546-2.0874 1.9775-2.0654 1.9775-6.2622v-1.9995q-1.2524 2.1753-3.208 3.252t-4.6802 1.0767q-4.5264 0-7.2949-3.4497-2.7686-3.4497-2.7686-9.1406 0-5.7129 2.7686-9.1626t7.2949-3.4497q2.7246 0 4.6802 1.0767t3.208 3.252v-3.7354h4.043v21.555zm-38.21-18.721q-3.252 0-5.1416 2.5488-1.8896 2.5269-1.8896 6.9434t1.8677 6.9653q1.8896 2.5269 5.1636 2.5269 3.23 0 5.1196-2.5488t1.8896-6.9434q0-4.3726-1.8896-6.9214-1.8896-2.5708-5.1196-2.5708zm0-3.4277q5.2734 0 8.2837 3.4277 3.0102 3.4277 3.0102 9.4922 0 6.0425-3.0102 9.4922-3.0103 3.4277-8.2837 3.4277-5.2954 0-8.3057-3.4277-2.9883-3.4497-2.9883-9.4922 0-6.0644 2.9883-9.4922 3.0102-3.4277 8.3057-3.4277zm-16.26-5.0757v4.6802q-2.2412-2.0874-4.79-3.1201-2.5269-1.0327-5.3833-1.0327-5.625 0-8.6133 3.4497-2.9883 3.4277-2.9883 9.9316 0 6.4819 2.9883 9.9316 2.9883 3.4277 8.6133 3.4277 2.8564 0 5.3833-1.0327 2.5488-1.0327 4.79-3.1201v4.6362q-2.3291 1.582-4.9438 2.373-2.5928 0.79101-5.4932 0.79101-7.4487 0-11.733-4.5483-4.2847-4.5703-4.2847-12.458 0-7.9102 4.2847-12.458 4.2847-4.5703 11.733-4.5703 2.9443 0 5.5371 0.79101 2.6147 0.76905 4.8999 2.3291zm163.36 62.877v3.186q-1.4282-0.73242-2.9663-1.0986-1.5381-0.36621-3.186-0.36621-2.5086 0-3.772 0.76905-1.2451 0.76904-1.2451 2.3071 0 1.1719 0.89721 1.8494 0.89722 0.65918 3.6072 1.2634l1.1536 0.25635q3.5889 0.76904 5.0903 2.179 1.5198 1.3916 1.5198 3.9002 0 2.8564-2.2705 4.5227-2.2522 1.6663-6.2073 1.6663-1.648 0-3.4424-0.32959-1.7761-0.31128-3.7537-0.95215v-3.479q1.8677 0.97046 3.6804 1.4648 1.8127 0.47608 3.5889 0.47608 2.3804 0 3.6621-0.80567 1.2817-0.82397 1.2817-2.3071 0-1.3733-0.93384-2.1057-0.91552-0.73242-4.0466-1.4099l-1.1719-0.27466q-3.1311-0.65918-4.5227-2.0142-1.3916-1.3733-1.3916-3.7537 0-2.8931 2.0508-4.4678t5.8228-1.5747q1.8677 0 3.5156 0.27466 1.648 0.27466 3.0396 0.82397zm-19.83 7.5256v12.378h-3.3691v-12.268q0-2.9114-1.1353-4.3579-1.1352-1.4465-3.4058-1.4465-2.7283 0-4.303 1.7395t-1.5747 4.7424v11.591h-3.3874v-20.508h3.3874v3.186q1.2085-1.8494 2.8381-2.7649 1.648-0.91553 3.7903-0.91553 3.5339 0 5.3467 2.1973 1.8128 2.179 1.8128 6.427zm-32.025-5.7678q-2.71 0-4.2847 2.124-1.5747 2.1057-1.5747 5.7861t1.5564 5.8044q1.5747 2.1057 4.303 2.1057 2.6916 0 4.2664-2.124 1.5747-2.124 1.5747-5.7861 0-3.6438-1.5747-5.7678-1.5747-2.1423-4.2664-2.1423zm0-2.8564q4.3945 0 6.9031 2.8564 2.5085 2.8564 2.5085 7.9102 0 5.0354-2.5085 7.9102-2.5086 2.8564-6.9031 2.8564-4.4128 0-6.9214-2.8564-2.4902-2.8748-2.4902-7.9102 0-5.0537 2.4902-7.9102 2.5085-2.8564 6.9214-2.8564zm-18.347 0.49438h3.3691v20.508h-3.3691v-20.508zm0-7.9834h3.3691v4.2664h-3.3691v-4.2664zm-11.389 2.1606v5.8228h6.9397v2.6184h-6.9397v11.133q0 2.5086 0.67749 3.2227 0.69581 0.71411 2.8015 0.71411h3.4607v2.8198h-3.4607q-3.9002 0-5.3833-1.4465-1.4832-1.4648-1.4832-5.3101v-11.133h-2.4719v-2.6184h2.4719v-5.8228h3.3874zm-9.2285 6.6101v3.1494q-1.4282-0.78735-2.8748-1.1719-1.4282-0.40284-2.8931-0.40284-3.2776 0-5.0903 2.0874-1.8127 2.0691-1.8127 5.8228t1.8127 5.8411q1.8128 2.0691 5.0903 2.0691 1.4648 0 2.8931-0.38452 1.4465-0.40284 2.8748-1.1902v3.1128q-1.4099 0.65918-2.9297 0.98877-1.5015 0.32959-3.2043 0.32959-4.6326 0-7.3608-2.9114-2.7283-2.9114-2.7283-7.8552 0-5.0171 2.7466-7.8918 2.7649-2.8748 7.5622-2.8748 1.5564 0 3.0396 0.32959 1.4832 0.31128 2.8748 0.95215zm-21.515 7.3425v12.378h-3.3691v-12.268q0-2.9114-1.1353-4.3579-1.1352-1.4465-3.4058-1.4465-2.7283 0-4.303 1.7395t-1.5747 4.7424v11.591h-3.3874v-20.508h3.3874v3.186q1.2085-1.8494 2.8381-2.7649 1.648-0.91553 3.7903-0.91553 3.5339 0 5.3467 2.1973 1.8128 2.179 1.8128 6.427zm-41.199 4.2847v-12.415h3.3691v12.286q0 2.9114 1.1352 4.3762 1.1352 1.4465 3.4058 1.4465 2.7283 0 4.303-1.7395 1.593-1.7395 1.593-4.7424v-11.627h3.3691v20.508h-3.3691v-3.1494q-1.2268 1.8677-2.8564 2.7832-1.6113 0.89721-3.7537 0.89721-3.5339 0-5.365-2.1973-1.831-2.1973-1.831-6.427zm-19.061-19.244h15.71v3.1128h-12.012v8.0566h10.84v3.1128h-10.84v13.055h-3.6987v-27.338z"/>
</svg>
